# file written by OpenSceneGraph

mtllib i94b010.mtl


g Group_0

g Group_MatrixTransform_0

o Group_MatrixTransform_i94b010_Geometry_0
usemtl material_16

v 2.99097 -7.70361 0.0443993
v 2.99097 -7.7041 4.578
v -7.89294 -8.08008 4.578
v -7.89294 -8.08008 4.578
v -7.89294 -8.07959 0.0667
v 2.99097 -7.70361 0.0443993
v -13.335 -8.26758 0.0778008
v -13.335 -8.26807 4.578
v -24.218 -8.64453 4.578
v -24.218 -8.64453 4.578
v -24.218 -8.64404 0.0999985
v -13.335 -8.26758 0.0778008
v 8.43201 -7.51563 4.578
v 8.43201 -7.51563 0.0332985
v 19.316 -7.13965 0.0111008
v 19.316 -7.13965 0.0111008
v 19.316 -7.13965 4.578
v 8.43201 -7.51563 4.578
# 18 elements written

vn 0.0345451 -0.999403 -4.79332e-005
vn 0.0345451 -0.999403 -4.79332e-005
vn 0.0345451 -0.999403 -4.79332e-005
vn 0.0345352 -0.999403 -7.18315e-005
vn 0.0345352 -0.999403 -7.18315e-005
vn 0.0345352 -0.999403 -7.18315e-005
vn 0.0345453 -0.999403 -8.42927e-005
vn 0.0345453 -0.999403 -8.42927e-005
vn 0.0345453 -0.999403 -8.42927e-005
vn 0.0345351 -0.999403 -0.000108975
vn 0.0345351 -0.999403 -0.000108975
vn 0.0345351 -0.999403 -0.000108975
vn 0.0345352 -0.999403 -3.60718e-005
vn 0.0345352 -0.999403 -3.60718e-005
vn 0.0345352 -0.999403 -3.60718e-005
vn 0.0345453 -0.999403 -1.19891e-005
vn 0.0345453 -0.999403 -1.19891e-005
vn 0.0345453 -0.999403 -1.19891e-005
# 18 elements written

vt 0.9995 0.000499249
vt 0.9995 0.9995
vt -0.998504 0.999501
vt -0.998504 0.999501
vt -0.998504 0.00539619
vt 0.9995 0.000499249
vt 0.9995 0.000499725
vt 0.9995 0.999501
vt -0.998504 0.999502
vt -0.998504 0.999502
vt -0.998504 0.00543296
vt 0.9995 0.000499725
vt -0.998503 0.9995
vt -0.998503 0.00536007
vt 0.999502 0.000499249
vt 0.999502 0.000499249
vt 0.999498 0.9995
vt -0.998503 0.9995
# 18 elements written
f 1/1/1 2/2/2 3/3/3 
f 4/4/4 5/5/5 6/6/6 
f 7/7/7 8/8/8 9/9/9 
f 10/10/10 11/11/11 12/12/12 
f 13/13/13 14/14/14 15/15/15 
f 16/16/16 17/17/17 18/18/18 

o Group_MatrixTransform_i94b010_Geometry_1
usemtl material_17

v -7.89294 -8.07959 0.0667
v -7.89294 -8.08008 4.578
v -13.335 -8.26807 4.578
v -13.335 -8.26807 4.578
v -13.335 -8.26758 0.0778008
v -7.89294 -8.07959 0.0667
v 19.316 -7.13965 4.578
v 19.316 -7.13965 0.0111008
v 24.757 -6.95166 0
v 24.757 -6.95166 0
v 24.757 -6.95166 4.578
v 19.316 -7.13965 4.578
v 2.99097 -7.7041 4.578
v 2.99097 -7.70361 0.0443993
v 8.43201 -7.51563 0.0332985
v 8.43201 -7.51563 0.0332985
v 8.43201 -7.51563 4.578
v 2.99097 -7.7041 4.578
# 18 elements written

vn 0.0345452 -0.999403 -7.18315e-005
vn 0.0345452 -0.999403 -7.18315e-005
vn 0.0345452 -0.999403 -7.18315e-005
vn 0.0345349 -0.999404 -8.42927e-005
vn 0.0345349 -0.999404 -8.42927e-005
vn 0.0345349 -0.999404 -8.42927e-005
vn 0.0345352 -0.999403 -1.19892e-005
vn 0.0345352 -0.999403 -1.19892e-005
vn 0.0345352 -0.999403 -1.19892e-005
vn 0.0345452 -0.999403 0
vn 0.0345452 -0.999403 0
vn 0.0345452 -0.999403 0
vn 0.0345354 -0.999403 -4.79333e-005
vn 0.0345354 -0.999403 -4.79333e-005
vn 0.0345354 -0.999403 -4.79333e-005
vn 0.0345452 -0.999403 -3.60717e-005
vn 0.0345452 -0.999403 -3.60717e-005
vn 0.0345452 -0.999403 -3.60717e-005
# 18 elements written

vt 0.9995 0.000498772
vt 0.9995 0.9995
vt 0.000499725 0.9995
vt 0.000499725 0.9995
vt 0.000499725 0.00295973
vt 0.9995 0.000498772
vt 0.000501633 0.9995
vt 0.00050354 0.00292397
vt 0.999502 0.000499249
vt 0.999502 0.000499249
vt 0.999502 0.9995
vt 0.000501633 0.9995
vt 0.000501633 0.9995
vt 0.00050354 0.00292397
vt 0.999502 0.000499249
vt 0.999502 0.000499249
vt 0.999502 0.9995
vt 0.000501633 0.9995
# 18 elements written
f 19/19/19 20/20/20 21/21/21 
f 22/22/22 23/23/23 24/24/24 
f 25/25/25 26/26/26 27/27/27 
f 28/28/28 29/29/29 30/30/30 
f 31/31/31 32/32/32 33/33/33 
f 34/34/34 35/35/35 36/36/36 

o Group_MatrixTransform_i94b010_Geometry_2
usemtl material_18

v 24.218 8.64502 4.578
v 24.488 0.839844 6.711
v 24.488 0.839844 0
v 24.488 0.839844 0
v 24.218 8.64502 0
v 24.218 8.64502 4.578
v -24.4869 -0.852051 6.711
v -24.757 6.95313 4.578
v -24.757 6.95313 0.0999985
v -24.757 6.95313 0.0999985
v -24.4869 -0.852051 0.0999985
v -24.4869 -0.852051 6.711
v -24.218 -8.64453 4.578
v -24.4869 -0.852051 6.711
v -24.4869 -0.852051 0.0999985
v -24.4869 -0.852051 0.0999985
v -24.218 -8.64404 0.0999985
v -24.218 -8.64453 4.578
v 24.488 0.839844 6.711
v 24.757 -6.95166 4.578
v 24.757 -6.95166 0
v 24.757 -6.95166 0
v 24.488 0.839844 0
v 24.488 0.839844 6.711
# 24 elements written

vn 0.999403 0.034543 0
vn 0.999403 0.034543 0
vn 0.999403 0.034543 0
vn 0.999403 0.034543 0
vn 0.999403 0.034543 0
vn 0.999403 0.034543 0
vn -0.999404 -0.0345274 -0
vn -0.999404 -0.0345274 -0
vn -0.999404 -0.0345274 -0
vn -0.999404 -0.0345274 0
vn -0.999404 -0.0345274 0
vn -0.999404 -0.0345274 0
vn -0.999404 -0.034521 -0
vn -0.999404 -0.034521 -0
vn -0.999404 -0.034521 -0
vn -0.999404 -0.0345232 -3.76441e-006
vn -0.999404 -0.0345232 -3.76441e-006
vn -0.999404 -0.0345232 -3.76441e-006
vn 0.999404 0.0345254 0
vn 0.999404 0.0345254 0
vn 0.999404 0.0345254 0
vn 0.999404 0.0345254 0
vn 0.999404 0.0345254 0
vn 0.999404 0.0345254 0
# 24 elements written

vt 0.999501 0.681982
vt 0.499562 0.999501
vt 0.499562 0.000499725
vt 0.499562 0.000499725
vt 0.999501 0.000499725
vt 0.999501 0.681982
vt 0.501016 0.9995
vt -0.748751 0.677178
vt -0.748751 0.000499249
vt -0.748751 0.000499249
vt 0.501016 0.000499249
vt 0.501016 0.9995
vt 1.74875 0.677178
vt 0.501016 0.9995
vt 0.501016 0.000499249
vt 0.501016 0.000499249
vt 1.74867 0.000499249
vt 1.74875 0.677178
vt 0.499562 0.999501
vt 0.000499547 0.681982
vt 0.000499547 0.000499725
vt 0.000499547 0.000499725
vt 0.499562 0.000499725
vt 0.499562 0.999501
# 24 elements written
f 37/37/37 38/38/38 39/39/39 
f 40/40/40 41/41/41 42/42/42 
f 43/43/43 44/44/44 45/45/45 
f 46/46/46 47/47/47 48/48/48 
f 49/49/49 50/50/50 51/51/51 
f 52/52/52 53/53/53 54/54/54 
f 55/55/55 56/56/56 57/57/57 
f 58/58/58 59/59/59 60/60/60 

o Group_MatrixTransform_i94b010_Geometry_3
usemtl material_19

v -24.757 6.95313 4.578
v 24.218 8.64502 4.578
v 24.218 8.64502 0
v 24.218 8.64502 0
v -24.757 6.95313 0.0999985
v -24.757 6.95313 4.578
# 6 elements written

vn -0.0345254 0.999404 0
vn -0.0345254 0.999404 0
vn -0.0345254 0.999404 0
vn -0.0345254 0.999404 0
vn -0.0345254 0.999404 0
vn -0.0345254 0.999404 0
# 6 elements written

vt 8.99835 0.999499
vt 0.117234 0.999499
vt 0.117234 0.000498772
vt 0.117234 0.000498772
vt 8.99835 0.0223203
vt 8.99835 0.999499
# 6 elements written
f 61/61/61 62/62/62 63/63/63 
f 64/64/64 65/65/65 66/66/66 

o Group_MatrixTransform_i94b010_Geometry_4
usemtl material_20

v -24.757 6.95313 4.578
v -24.4869 -0.852051 6.711
v 24.488 0.839844 6.711
v 24.488 0.839844 6.711
v 24.218 8.64502 4.578
v -24.757 6.95313 4.578
v 24.488 0.839844 6.711
v -24.4869 -0.852051 6.711
v -24.218 -8.64453 4.578
v 24.488 0.839844 6.711
v -24.218 -8.64453 4.578
v -13.335 -8.26807 4.578
v 24.488 0.839844 6.711
v -13.335 -8.26807 4.578
v -7.89294 -8.08008 4.578
v 24.488 0.839844 6.711
v -7.89294 -8.08008 4.578
v 2.99097 -7.7041 4.578
v 24.488 0.839844 6.711
v 2.99097 -7.7041 4.578
v 8.43201 -7.51563 4.578
v 24.488 0.839844 6.711
v 8.43201 -7.51563 4.578
v 19.316 -7.13965 4.578
v 24.488 0.839844 6.711
v 19.316 -7.13965 4.578
v 24.757 -6.95166 4.578
# 27 elements written

vn -0.0090963 0.26331 0.964668
vn -0.0090963 0.26331 0.964668
vn -0.0090963 0.26331 0.964668
vn -0.00909632 0.26331 0.964668
vn -0.00909632 0.26331 0.964668
vn -0.00909632 0.26331 0.964668
vn 0.00911009 -0.26371 0.964559
vn 0.00911009 -0.26371 0.964559
vn 0.00911009 -0.26371 0.964559
vn 0.00911642 -0.26374 0.964551
vn 0.00911642 -0.26374 0.964551
vn 0.00911642 -0.26374 0.964551
vn 0.00911641 -0.26374 0.964551
vn 0.00911641 -0.26374 0.964551
vn 0.00911641 -0.26374 0.964551
vn 0.00911637 -0.26374 0.964551
vn 0.00911637 -0.26374 0.964551
vn 0.00911637 -0.26374 0.964551
vn 0.00911641 -0.26374 0.964551
vn 0.00911641 -0.26374 0.964551
vn 0.00911641 -0.26374 0.964551
vn 0.00911642 -0.26374 0.964551
vn 0.00911642 -0.26374 0.964551
vn 0.00911642 -0.26374 0.964551
vn 0.00911641 -0.26374 0.964551
vn 0.00911641 -0.26374 0.964551
vn 0.00911641 -0.26374 0.964551
# 27 elements written

vt 0 0.565745
vt 0.035324 0.281908
vt 0.965244 0.718194
vt 0.965244 0.718194
vt 0.927225 0.99983
vt 0 0.565745
vt 0.965244 0.718194
vt 0.035324 0.281908
vt 0.072644 0
vt 0.965244 0.718194
vt 0.072644 0
vt 0.278554 0.0968129
vt 0.965244 0.718194
vt 0.278554 0.0968129
vt 0.381509 0.145219
vt 0.965244 0.718194
vt 0.381509 0.145219
vt 0.587418 0.242032
vt 0.965244 0.718194
vt 0.587418 0.242032
vt 0.690373 0.290439
vt 0.965244 0.718194
vt 0.690373 0.290439
vt 0.896283 0.387252
vt 0.965244 0.718194
vt 0.896283 0.387252
vt 0.999238 0.435658
# 27 elements written
f 67/67/67 68/68/68 69/69/69 
f 70/70/70 71/71/71 72/72/72 
f 73/73/73 74/74/74 75/75/75 
f 76/76/76 77/77/77 78/78/78 
f 79/79/79 80/80/80 81/81/81 
f 82/82/82 83/83/83 84/84/84 
f 85/85/85 86/86/86 87/87/87 
f 88/88/88 89/89/89 90/90/90 
f 91/91/91 92/92/92 93/93/93 
