# file written by OpenSceneGraph

mtllib i94b012.mtl


g Group_0

g Group_MatrixTransform_0

o Group_MatrixTransform_i94b012_Geometry_0
usemtl material_25

v -30.2385 3.52393 4.045
v 23.1725 5.36572 4.045
v 23.1725 5.36572 0.112
v 23.1725 5.36572 0.112
v -30.2385 3.52393 0.399998
v -30.2385 3.52393 4.045
# 6 elements written

vn -0.034463 0.999406 0
vn -0.034463 0.999406 0
vn -0.034463 0.999406 0
vn -0.034463 0.999406 0
vn -0.034463 0.999406 0
vn -0.034463 0.999406 0
# 6 elements written

vt 12.9935 0.9995
vt 0.00649643 0.9995
vt 0.00649643 0.000499725
vt 0.00649643 0.000499725
vt 12.9935 0.0736618
vt 12.9935 0.9995
# 6 elements written
f 1/1/1 2/2/2 3/3/3 
f 4/4/4 5/5/5 6/6/6 

o Group_MatrixTransform_i94b012_Geometry_1
usemtl material_26

v 23.5625 -2.46094 3.7416
v -29.9706 -4.30811 3.7567
v -29.9706 -4.30811 0.299999
v -29.9706 -4.30811 0.299999
v 23.5625 -2.46094 0.0999985
v 23.5625 -2.46094 3.7416
# 6 elements written

vn 0.0344822 -0.999405 5.36981e-005
vn 0.0344822 -0.999405 5.36981e-005
vn 0.0344822 -0.999405 5.36981e-005
vn 0.0344857 -0.999405 -5.77998e-007
vn 0.0344857 -0.999405 -5.77998e-007
vn 0.0344857 -0.999405 -5.77998e-007
# 6 elements written

vt 12.9935 0.922654
vt 0.00649333 0.92655
vt 0.00649333 0.0511465
vt 0.00649333 0.0511465
vt 12.9935 0.000499725
vt 12.9935 0.922654
# 6 elements written
f 7/7/7 8/8/8 9/9/9 
f 10/10/10 11/11/11 12/12/12 

o Group_MatrixTransform_i94b012_Geometry_2
usemtl material_27

v 23.1725 5.36572 4.045
v 23.2734 2.4292 4.045
v 23.2734 2.42969 0.0999985
v 23.2734 2.42969 0.0999985
v 23.1725 5.36572 0.112
v 23.1725 5.36572 4.045
v -30.2385 3.52393 4.045
v -30.2385 3.52393 0.399998
v -29.9695 -4.30762 0.311901
v -30.2385 3.52393 4.045
v -29.9695 -4.30762 0.311901
v -29.9706 -4.30811 3.7567
v -30.2385 3.52393 4.045
v -29.9706 -4.30811 3.7567
v -29.9695 -4.30762 4.045
# 15 elements written

vn 0.999407 0.0344408 -2.66619e-005
vn 0.999407 0.0344408 -2.66619e-005
vn 0.999407 0.0344408 -2.66619e-005
vn 0.999408 0.034405 0
vn 0.999408 0.034405 0
vn 0.999408 0.034405 0
vn -0.999412 -0.0342938 0
vn -0.999412 -0.0342938 0
vn -0.999412 -0.0342938 0
vn -0.999414 -0.0342422 -0.000108256
vn -0.999414 -0.0342422 -0.000108256
vn -0.999414 -0.0342422 -0.000108256
vn -0.999411 -0.0342937 0.00129358
vn -0.999411 -0.0342937 0.00129358
vn -0.999411 -0.0342937 0.00129358
# 15 elements written

vt 2.28865 0.9995
vt 1.30981 0.9995
vt 1.30998 0.000499725
vt 1.30998 0.000499725
vt 2.28865 0.00352859
vt 2.28865 0.9995
vt -0.674726 0.9995
vt -0.674726 0.0764694
vt 1.93585 0.0541613
vt -0.674726 0.9995
vt 1.93585 0.0541613
vt 1.93585 0.926441
vt -0.674726 0.9995
vt 1.93585 0.926441
vt 1.93585 0.9995
# 15 elements written
f 13/13/13 14/14/14 15/15/15 
f 16/16/16 17/17/17 18/18/18 
f 19/19/19 20/20/20 21/21/21 
f 22/22/22 23/23/23 24/24/24 
f 25/25/25 26/26/26 27/27/27 

o Group_MatrixTransform_i94b012_Geometry_3
usemtl material_28

v 23.2734 2.4292 4.045
v 30.0704 2.66504 4.045
v 30.0704 2.66504 0
v 30.0704 2.66504 0
v 23.2734 2.42969 0.0999985
v 23.2734 2.4292 4.045
# 6 elements written

vn -0.0346774 0.999399 0
vn -0.0346774 0.999399 0
vn -0.0346774 0.999399 0
vn -0.0346032 0.999401 0.000124769
vn -0.0346032 0.999401 0.000124769
vn -0.0346032 0.999401 0.000124769
# 6 elements written

vt 1.99896 0.9995
vt 0.000995636 0.9995
vt 0.000995636 0.000499725
vt 0.000995636 0.000499725
vt 1.999 0.0251961
vt 1.99896 0.9995
# 6 elements written
f 28/28/28 29/29/29 30/30/30 
f 31/31/31 32/32/32 33/33/33 

o Group_MatrixTransform_i94b012_Geometry_4
usemtl material_29

v 30.2385 -2.23096 4.045
v 23.5625 -2.46094 4.045
v 23.5625 -2.46094 3.7416
v 30.2385 -2.23096 4.045
v 23.5625 -2.46094 3.7416
v 23.5625 -2.46094 0.0999985
v 30.2385 -2.23096 4.045
v 23.5625 -2.46094 0.0999985
v 30.2385 -2.23096 0
# 9 elements written

vn 0.0344289 -0.999407 0.000165532
vn 0.0344289 -0.999407 0.000165532
vn 0.0344289 -0.999407 0.000165532
vn 0.0344365 -0.999407 -5.77173e-007
vn 0.0344365 -0.999407 -5.77173e-007
vn 0.0344365 -0.999407 -5.77173e-007
vn 0.0344361 -0.999407 0
vn 0.0344361 -0.999407 0
vn 0.0344361 -0.999407 0
# 9 elements written

vt 2.10327 0.999499
vt 0.105305 0.999499
vt 0.105302 0.924586
vt 2.10327 0.999499
vt 0.105302 0.924586
vt 0.105267 0.0251951
vt 2.10327 0.999499
vt 0.105267 0.0251951
vt 2.10327 0.000498772
# 9 elements written
f 34/34/34 35/35/35 36/36/36 
f 37/37/37 38/38/38 39/39/39 
f 40/40/40 41/41/41 42/42/42 

o Group_MatrixTransform_i94b012_Geometry_5
usemtl material_30

v 23.5995 -3.51904 4.045
v -29.9335 -5.36621 4.045
v -29.9335 -5.36621 3.7569
v -29.9335 -5.36621 3.7569
v 23.5995 -3.51904 3.7415
v 23.5995 -3.51904 4.045
v 23.5625 -2.46094 4.045
v 23.5995 -3.51904 4.045
v 23.5995 -3.51904 3.7415
v 23.5995 -3.51904 3.7415
v 23.5625 -2.46094 3.7416
v 23.5625 -2.46094 4.045
v -29.9335 -5.36621 4.045
v -29.9695 -4.30762 4.045
v -29.9706 -4.30811 3.7567
v -29.9706 -4.30811 3.7567
v -29.9335 -5.36621 3.7569
v -29.9335 -5.36621 4.045
# 18 elements written

vn 0.0344847 -0.999405 0
vn 0.0344847 -0.999405 0
vn 0.0344847 -0.999405 0
vn 0.0344847 -0.999405 0
vn 0.0344847 -0.999405 0
vn 0.0344847 -0.999405 0
vn 0.999394 0.0348197 0
vn 0.999394 0.0348197 0
vn 0.999394 0.0348197 0
vn 0.99939 0.0349078 -0.000307718
vn 0.99939 0.0349078 -0.000307718
vn 0.99939 0.0349078 -0.000307718
vn -0.999411 -0.0342919 0.00129358
vn -0.999411 -0.0342919 0.00129358
vn -0.999411 -0.0342919 0.00129358
vn -0.9994 -0.0346439 0
vn -0.9994 -0.0346439 0
vn -0.9994 -0.0346439 0
# 18 elements written

vt 13.8923 0.65173
vt -12.8742 0.65173
vt -12.8742 0.363651
vt -12.8742 0.363651
vt 13.8923 0.348267
vt 13.8923 0.65173
vt 1.22631 0.651733
vt 0.697262 0.65173
vt 0.697262 0.348267
vt 0.697262 0.348267
vt 1.22631 0.348408
vt 1.22631 0.651733
vt 1.22632 0.65173
vt 0.697117 0.65173
vt 0.697117 0.363224
vt 0.697117 0.363224
vt 1.22632 0.363651
vt 1.22632 0.65173
# 18 elements written
f 43/43/43 44/44/44 45/45/45 
f 46/46/46 47/47/47 48/48/48 
f 49/49/49 50/50/50 51/51/51 
f 52/52/52 53/53/53 54/54/54 
f 55/55/55 56/56/56 57/57/57 
f 58/58/58 59/59/59 60/60/60 

o Group_MatrixTransform_i94b012_Geometry_6
usemtl material_31

v 30.0704 2.66504 4.045
v 30.2385 -2.23096 4.045
v 30.2385 -2.23096 0
v 30.2385 -2.23096 0
v 30.0704 2.66504 0
v 30.0704 2.66504 4.045
# 6 elements written

vn 0.999412 0.0342872 0
vn 0.999412 0.0342872 0
vn 0.999412 0.0342872 0
vn 0.999412 0.0342872 0
vn 0.999412 0.0342872 0
vn 0.999412 0.0342872 0
# 6 elements written

vt 0.9995 0.999499
vt 0.0453205 0.9995
vt 0.0453205 0.000498772
vt 0.0453205 0.000498772
vt 0.9995 0.000498772
vt 0.9995 0.999499
# 6 elements written
f 61/61/61 62/62/62 63/63/63 
f 64/64/64 65/65/65 66/66/66 

o Group_MatrixTransform_i94b012_Geometry_7
usemtl material_32

v 29.2565 -2.22314 3.557
v 29.2935 -3.15088 3.557
v 29.2935 -3.15088 3.4579
v 29.2935 -3.15088 3.4579
v 29.2565 -2.22314 3.4579
v 29.2565 -2.22314 3.557
v 23.5215 -2.45605 3.557
v 29.2565 -2.22314 3.557
v 29.2565 -2.22314 3.4579
v 29.2565 -2.22314 3.4579
v 23.5215 -2.45605 3.4494
v 23.5215 -2.45605 3.557
v 23.5585 -3.38428 3.557
v 23.5215 -2.45605 3.557
v 23.5215 -2.45605 3.4494
v 23.5215 -2.45605 3.4494
v 23.5585 -3.38428 3.4494
v 23.5585 -3.38428 3.557
v 29.2935 -3.15088 3.557
v 23.5585 -3.38428 3.557
v 23.5585 -3.38428 3.4494
v 23.5585 -3.38428 3.4494
v 29.2935 -3.15088 3.4579
v 29.2935 -3.15088 3.557
v 23.5585 -3.38428 3.4494
v 23.5215 -2.45605 3.4494
v 29.2565 -2.22314 3.4579
v 29.2565 -2.22314 3.4579
v 29.2935 -3.15088 3.4579
v 23.5585 -3.38428 3.4494
v 23.5995 -3.51904 3.7415
v -29.9335 -5.36621 3.7569
v -29.9706 -4.30811 3.7567
v -29.9706 -4.30811 3.7567
v 23.5625 -2.46094 3.7416
v 23.5995 -3.51904 3.7415
# 36 elements written

vn 0.999211 0.0397055 0
vn 0.999211 0.0397055 0
vn 0.999211 0.0397055 0
vn 0.999205 0.0398367 -0.00123041
vn 0.999205 0.0398367 -0.00123041
vn 0.999205 0.0398367 -0.00123041
vn -0.0405778 0.999176 4.9967e-005
vn -0.0405778 0.999176 4.9967e-005
vn -0.0405778 0.999176 4.9967e-005
vn -0.0405787 0.999176 0
vn -0.0405787 0.999176 0
vn -0.0405787 0.999176 0
vn -0.999207 -0.0398159 -0
vn -0.999207 -0.0398159 -0
vn -0.999207 -0.0398159 -0
vn -0.999207 -0.0398159 0
vn -0.999207 -0.0398159 0
vn -0.999207 -0.0398159 0
vn 0.0406636 -0.999173 0
vn 0.0406636 -0.999173 0
vn 0.0406636 -0.999173 0
vn 0.0406636 -0.999173 0
vn 0.0406636 -0.999173 0
vn 0.0406636 -0.999173 0
vn 0.00147427 5.8746e-005 -0.999999
vn 0.00147427 5.8746e-005 -0.999999
vn 0.00147427 5.8746e-005 -0.999999
vn 0.00147427 5.87767e-005 -0.999999
vn 0.00147427 5.87767e-005 -0.999999
vn 0.00147427 5.87767e-005 -0.999999
vn -0.000280086 -0.000211584 -1
vn -0.000280086 -0.000211584 -1
vn -0.000280086 -0.000211584 -1
vn -0.000284012 5.49769e-005 -1
vn -0.000284012 5.49769e-005 -1
vn -0.000284012 5.49769e-005 -1
# 36 elements written

vt 0.790283 0.526899
vt 0.326416 0.526899
vt 0.326416 0.477333
vt 0.326416 0.477333
vt 0.790283 0.477333
vt 0.790283 0.526899
vt 1.94299 0.526899
vt -0.924561 0.526899
vt -0.9245 0.477333
vt -0.9245 0.477333
vt 1.94299 0.473099
vt 1.94299 0.526899
vt 0.790283 0.526899
vt 0.326172 0.526899
vt 0.326172 0.473099
vt 0.326172 0.473099
vt 0.790283 0.473099
vt 0.790283 0.526899
vt 1.94299 0.526899
vt -0.9245 0.526899
vt -0.9245 0.473099
vt -0.9245 0.473099
vt 1.94299 0.477333
vt 1.94299 0.526899
vt 1.9245 0.209717
vt 1.94299 0.673828
vt -0.9245 0.790283
vt -0.9245 0.790283
vt -0.942993 0.326416
vt 1.9245 0.209717
vt -12.8925 0.697289
vt 13.874 -0.22629
vt 13.8925 0.30271
vt 13.8925 0.30271
vt -12.874 1.22629
vt -12.8925 0.697289
# 36 elements written
f 67/67/67 68/68/68 69/69/69 
f 70/70/70 71/71/71 72/72/72 
f 73/73/73 74/74/74 75/75/75 
f 76/76/76 77/77/77 78/78/78 
f 79/79/79 80/80/80 81/81/81 
f 82/82/82 83/83/83 84/84/84 
f 85/85/85 86/86/86 87/87/87 
f 88/88/88 89/89/89 90/90/90 
f 91/91/91 92/92/92 93/93/93 
f 94/94/94 95/95/95 96/96/96 
f 97/97/97 98/98/98 99/99/99 
f 100/100/100 101/101/101 102/102/102 

o Group_MatrixTransform_i94b012_Geometry_8
usemtl material_33

v 23.5585 -3.38428 3.557
v 29.2935 -3.15088 3.557
v 29.2565 -2.22314 3.557
v 29.2565 -2.22314 3.557
v 23.5215 -2.45605 3.557
v 23.5585 -3.38428 3.557
# 6 elements written

vn 0 0 1
vn 0 0 1
vn 0 0 1
vn 0 0 1
vn 0 0 1
vn 0 0 1
# 6 elements written

vt 0.038934 0
vt 0.999053 0.60355
vt 0.960159 0.999336
vt 0.960159 0.999336
vt 0 0.395914
vt 0.038934 0
# 6 elements written
f 103/103/103 104/104/104 105/105/105 
f 106/106/106 107/107/107 108/108/108 

o Group_MatrixTransform_i94b012_Geometry_9
usemtl material_34

v 30.2385 -2.23096 4.045
v 30.0704 2.66504 4.045
v 23.2734 2.4292 4.045
v 23.5625 -2.46094 4.045
v 30.2385 -2.23096 4.045
v 23.2734 2.4292 4.045
v 23.2734 2.4292 4.045
v 23.1725 5.36572 4.045
v -30.2385 3.52393 4.045
v 23.5995 -3.51904 4.045
v 23.5625 -2.46094 4.045
v 23.2734 2.4292 4.045
v 23.5995 -3.51904 4.045
v 23.2734 2.4292 4.045
v -30.2385 3.52393 4.045
v -29.9695 -4.30762 4.045
v -29.9335 -5.36621 4.045
v 23.5995 -3.51904 4.045
v 23.5995 -3.51904 4.045
v -30.2385 3.52393 4.045
v -29.9695 -4.30762 4.045
# 21 elements written

vn -2.70029e-008 7.7822e-007 1
vn -2.70029e-008 7.7822e-007 1
vn -2.70029e-008 7.7822e-007 1
vn -2.68186e-008 7.78495e-007 1
vn -2.68186e-008 7.78495e-007 1
vn -2.68186e-008 7.78495e-007 1
vn 0 0 1
vn 0 0 1
vn 0 0 1
vn -0.00018087 -9.90686e-006 1
vn -0.00018087 -9.90686e-006 1
vn -0.00018087 -9.90686e-006 1
vn 0 0 1
vn 0 0 1
vn 0 0 1
vn 0 0 1
vn 0 0 1
vn 0 0 1
vn 0 0 1
vn 0 0 1
vn 0 0 1
# 21 elements written

vt 0.999468 0.715009
vt 0.980284 0.939798
vt 0.871305 0.8649
vt 0.89245 0.641397
vt 0.999468 0.715009
vt 0.871305 0.8649
vt 0.871305 0.8649
vt 0.85978 0.999779
vt 0 0.409591
vt 0.896612 0.592817
vt 0.89245 0.641397
vt 0.871305 0.8649
vt 0.896612 0.592817
vt 0.871305 0.8649
vt 0 0.409591
vt 0.0310199 0.048763
vt 0.035212 0
vt 0.896612 0.592817
vt 0.896612 0.592817
vt 0 0.409591
vt 0.0310199 0.048763
# 21 elements written
f 109/109/109 110/110/110 111/111/111 
f 112/112/112 113/113/113 114/114/114 
f 115/115/115 116/116/116 117/117/117 
f 118/118/118 119/119/119 120/120/120 
f 121/121/121 122/122/122 123/123/123 
f 124/124/124 125/125/125 126/126/126 
f 127/127/127 128/128/128 129/129/129 
