# file written by OpenSceneGraph

mtllib i96059X.mtl


g Group_0

g Group_MatrixTransform_0

o Group_MatrixTransform_i96059X_Geometry_0
usemtl material_217

v 12.8451 -13.605 6.4521
v 12.8451 -13.605 4.4329
v 6.04504 -13.6353 4.4329
v 6.04504 -13.6353 4.4329
v 6.04504 -13.6353 6.4521
v 12.8451 -13.605 6.4521
v 12.8451 -13.7852 4.4329
v 6.04504 -13.8149 4.4329
v 6.04504 -13.6353 4.4329
v 6.04504 -13.6353 4.4329
v 12.8451 -13.605 4.4329
v 12.8451 -13.7852 4.4329
v 12.8451 -13.7852 6.4521
v 12.8451 -13.7852 4.4329
v 12.8451 -13.605 4.4329
v 12.8451 -13.605 4.4329
v 12.8451 -13.605 6.4521
v 12.8451 -13.7852 6.4521
v 6.04504 -13.8149 6.4521
v 12.8451 -13.7852 6.4521
v 12.8451 -13.605 6.4521
v 12.8451 -13.605 6.4521
v 6.04504 -13.6353 6.4521
v 6.04504 -13.8149 6.4521
v 6.04504 -13.8149 4.4329
v 6.04504 -13.8149 6.4521
v 6.04504 -13.6353 6.4521
v 6.04504 -13.6353 6.4521
v 6.04504 -13.6353 4.4329
v 6.04504 -13.8149 4.4329
# 30 elements written

vn -0.00488193 0.999988 0
vn -0.00488193 0.999988 0
vn -0.00488193 0.999988 0
vn -0.00488193 0.999988 0
vn -0.00488193 0.999988 0
vn -0.00488193 0.999988 0
vn 0 0 -1
vn 0 0 -1
vn 0 0 -1
vn 0 0 -1
vn 0 0 -1
vn 0 0 -1
vn 0.999986 0.00539076 0
vn 0.999986 0.00539076 0
vn 0.999986 0.00539076 0
vn 0.999986 0.00539076 0
vn 0.999986 0.00539076 0
vn 0.999986 0.00539076 0
vn 0 0 1
vn 0 0 1
vn 0 0 1
vn 0 0 1
vn 0 0 1
vn 0 0 1
vn -0.999986 -0.00539076 -0
vn -0.999986 -0.00539076 -0
vn -0.999986 -0.00539076 -0
vn -0.999986 -0.00539076 0
vn -0.999986 -0.00539076 0
vn -0.999986 -0.00539076 0
# 30 elements written

vt -0.633536 0.836537
vt -0.633536 0.163462
vt 1.63354 0.163463
vt 1.63354 0.163463
vt 1.63354 0.836538
vt -0.633536 0.836537
vt 1.63354 0.530189
vt -0.633536 0.530189
vt -0.633536 0.469811
vt -0.633536 0.469811
vt 1.63354 0.469811
vt 1.63354 0.530189
vt 0.836537 0.530189
vt 0.163462 0.530189
vt 0.163462 0.469811
vt 0.163462 0.469811
vt 0.836537 0.469811
vt 0.836537 0.530189
vt 1.63354 0.530189
vt -0.633536 0.530189
vt -0.633536 0.469811
vt -0.633536 0.469811
vt 1.63354 0.469811
vt 1.63354 0.530189
vt 0.836537 0.530189
vt 0.163462 0.530189
vt 0.163462 0.469811
vt 0.163462 0.469811
vt 0.836537 0.469811
vt 0.836537 0.530189
# 30 elements written
f 1/1/1 2/2/2 3/3/3 
f 4/4/4 5/5/5 6/6/6 
f 7/7/7 8/8/8 9/9/9 
f 10/10/10 11/11/11 12/12/12 
f 13/13/13 14/14/14 15/15/15 
f 16/16/16 17/17/17 18/18/18 
f 19/19/19 20/20/20 21/21/21 
f 22/22/22 23/23/23 24/24/24 
f 25/25/25 26/26/26 27/27/27 
f 28/28/28 29/29/29 30/30/30 

o Group_MatrixTransform_i96059X_Geometry_1
usemtl material_218

v 12.8451 -13.7852 6.4521
v 6.04504 -13.8149 6.4521
v 6.04504 -13.8149 4.4329
v 6.04504 -13.8149 4.4329
v 12.8451 -13.7852 4.4329
v 12.8451 -13.7852 6.4521
# 6 elements written

vn 0.00488193 -0.999988 0
vn 0.00488193 -0.999988 0
vn 0.00488193 -0.999988 0
vn 0.00488193 -0.999988 0
vn 0.00488193 -0.999988 0
vn 0.00488193 -0.999988 0
# 6 elements written

vt 1 1
vt 0 1
vt 0 0
vt 0 0
vt 1 0
vt 1 1
# 6 elements written
f 31/31/31 32/32/32 33/33/33 
f 34/34/34 35/35/35 36/36/36 

o Group_MatrixTransform_i96059X_Geometry_2
usemtl material_219

v -5.74487 9.11475 6.4854
v -5.74487 9.11475 0.3815
v -5.75488 13.8149 0.388401
v -5.75488 13.8149 0.388401
v -5.75488 13.8149 6.4854
v -5.74487 9.11475 6.4854
# 6 elements written

vn 0.999996 0.00267396 -1.99987e-005
vn 0.999996 0.00267396 -1.99987e-005
vn 0.999996 0.00267396 -1.99987e-005
vn 0.999996 0.00269989 0
vn 0.999996 0.00269989 0
vn 0.999996 0.00269989 0
# 6 elements written

vt 0.0540161 0.999501
vt 0.0540161 0.000499725
vt 0.945984 0.00162745
vt 0.945984 0.00162745
vt 0.945984 0.999501
vt 0.0540161 0.999501
# 6 elements written
f 37/37/37 38/38/38 39/39/39 
f 40/40/40 41/41/41 42/42/42 

o Group_MatrixTransform_i96059X_Geometry_3
usemtl material_220

v -5.75488 13.8149 0.388401
v -12.845 13.7949 0
v -12.845 13.7949 5.9334
v -12.845 13.7949 5.9334
v -5.75488 13.8149 6.4854
v -5.75488 13.8149 0.388401
v -12.7749 -13.7148 0.351101
v -5.68494 -13.6948 0.348103
v -5.68494 -13.6948 6.4854
v -5.68494 -13.6948 6.4854
v -12.7749 -13.7148 5.9334
v -12.7749 -13.7148 0.351101
v -5.68494 -13.6948 6.4854
v -5.68494 -13.6948 0.348103
v -5.74487 9.11475 0.3815
v -5.74487 9.11475 0.3815
v -5.74487 9.11475 6.4854
v -5.68494 -13.6948 6.4854
# 18 elements written

vn -0.00282402 0.999996 0
vn -0.00282402 0.999996 0
vn -0.00282402 0.999996 0
vn -0.00282402 0.999996 0
vn -0.00282402 0.999996 0
vn -0.00282402 0.999996 0
vn 0.00247963 -0.999997 0
vn 0.00247963 -0.999997 0
vn 0.00247963 -0.999997 0
vn 0.00247963 -0.999997 0
vn 0.00247963 -0.999997 0
vn 0.00247963 -0.999997 0
vn 0.999996 0.0026915 0
vn 0.999996 0.0026915 0
vn 0.999996 0.0026915 0
vn 0.999996 0.00268615 -1.99987e-005
vn 0.999996 0.00268615 -1.99987e-005
vn 0.999996 0.00268615 -1.99987e-005
# 18 elements written

vt 2.99851 0
vt 0.00151062 0
vt 0.00151062 1
vt 0.00151062 1
vt 2.99851 1
vt 2.99851 0
vt 2.99851 0
vt 0.00151062 0
vt 0.00151062 1
vt 0.00151062 1
vt 2.99851 1
vt 2.99851 0
vt 0.00195313 1
vt 0.00195313 0
vt 3.99792 0
vt 3.99792 0
vt 3.99792 1
vt 0.00195313 1
# 18 elements written
f 43/43/43 44/44/44 45/45/45 
f 46/46/46 47/47/47 48/48/48 
f 49/49/49 50/50/50 51/51/51 
f 52/52/52 53/53/53 54/54/54 
f 55/55/55 56/56/56 57/57/57 
f 58/58/58 59/59/59 60/60/60 

o Group_MatrixTransform_i96059X_Geometry_4
usemtl material_221

v -12.845 13.7949 0
v -12.7749 -13.7148 0.351101
v -12.7749 -13.7148 5.9334
v -12.7749 -13.7148 5.9334
v -12.845 13.7949 5.9334
v -12.845 13.7949 0
# 6 elements written

vn -0.999996 -0.00268873 0
vn -0.999996 -0.00268873 0
vn -0.999996 -0.00268873 0
vn -0.999996 -0.00268873 -0
vn -0.999996 -0.00268873 -0
vn -0.999996 -0.00268873 -0
# 6 elements written

vt 0.00244141 0
vt 4.99748 0
vt 4.99748 1
vt 4.99748 1
vt 0.00244141 1
vt 0.00244141 0
# 6 elements written
f 61/61/61 62/62/62 63/63/63 
f 64/64/64 65/65/65 66/66/66 

o Group_MatrixTransform_i96059X_Geometry_5
usemtl material_222

v 12.3151 -3.70508 7.5044
v 12.3651 -13.7251 6.1074
v 12.3651 -13.7251 0.488403
v 12.3651 -13.7251 0.488403
v 12.3151 -3.70508 0.588402
v 12.3151 -3.70508 7.5044
v 12.2551 9.19482 5.9334
v 12.3151 -3.70508 7.5044
v 12.3151 -3.70508 0.588402
v 12.3151 -3.70508 0.588402
v 12.2551 9.19482 0.588402
v 12.2551 9.19482 5.9334
v -5.71497 -3.79492 7.5044
v -5.7749 9.10498 5.9334
v -5.7749 9.10498 0.465603
v -5.7749 9.10498 0.465603
v -5.71497 -3.79492 0.214302
v -5.71497 -3.79492 7.5044
v -5.66492 -13.8149 6.1074
v -5.71497 -3.79492 7.5044
v -5.71497 -3.79492 0.214302
v -5.71497 -3.79492 0.214302
v -5.66492 -13.8149 0.353104
v -5.66492 -13.8149 6.1074
# 24 elements written

vn 0.999988 0.00494248 0
vn 0.999988 0.00494248 0
vn 0.999988 0.00494248 0
vn 0.999988 0.00494248 0
vn 0.999988 0.00494248 0
vn 0.999988 0.00494248 0
vn 0.999988 0.00493066 0
vn 0.999988 0.00493066 0
vn 0.999988 0.00493066 0
vn 0.999988 0.00493066 0
vn 0.999988 0.00493066 0
vn 0.999988 0.00493066 0
vn -0.999988 -0.00493975 -0
vn -0.999988 -0.00493975 -0
vn -0.999988 -0.00493975 -0
vn -0.999988 -0.00493993 -3.3087e-007
vn -0.999988 -0.00493993 -3.3087e-007
vn -0.999988 -0.00493993 -3.3087e-007
vn -0.999988 -0.00494292 -3.3107e-007
vn -0.999988 -0.00494292 -3.3107e-007
vn -0.999988 -0.00494292 -3.3107e-007
vn -0.999988 -0.00493025 2.12136e-005
vn -0.999988 -0.00493025 2.12136e-005
vn -0.999988 -0.00493025 2.12136e-005
# 24 elements written

vt 0.0100025 0.999501
vt 0.995582 0.814337
vt 0.995582 0.00392961
vt 0.995582 0.00392961
vt 0.0100025 0.00392961
vt 0.0100025 0.999501
vt 0.994474 0.819061
vt 0.0270524 0.999501
vt 0.0270524 0.00392961
vt 0.0270524 0.00392961
vt 0.994474 0.00392961
vt 0.994474 0.819061
vt 0.00934299 0.999501
vt 0.999512 0.784218
vt 0.999512 0
vt 0.999512 0
vt 0.00940403 0
vt 0.00934299 0.999501
vt 0.999512 0.808063
vt 0.0249303 0.999501
vt 0.0248693 0
vt 0.0248693 0
vt 0.999512 0
vt 0.999512 0.808063
# 24 elements written
f 67/67/67 68/68/68 69/69/69 
f 70/70/70 71/71/71 72/72/72 
f 73/73/73 74/74/74 75/75/75 
f 76/76/76 77/77/77 78/78/78 
f 79/79/79 80/80/80 81/81/81 
f 82/82/82 83/83/83 84/84/84 
f 85/85/85 86/86/86 87/87/87 
f 88/88/88 89/89/89 90/90/90 

o Group_MatrixTransform_i96059X_Geometry_6
usemtl material_223

v 6.24512 9.16504 5.9334
v 6.24512 9.16504 0.547401
v 0.235107 9.13477 0.5065
v 0.235107 9.13477 0.5065
v 0.235107 9.13477 5.9334
v 6.24512 9.16504 5.9334
# 6 elements written

vn -0.00487373 0.999988 0
vn -0.00487373 0.999988 0
vn -0.00487373 0.999988 0
vn -0.00487373 0.999988 0
vn -0.00487373 0.999988 0
vn -0.00487373 0.999988 0
# 6 elements written

vt 0.069397 1
vt 0.069397 0.00392961
vt 0.930603 0.00392961
vt 0.930603 0.00392961
vt 0.930603 1
vt 0.069397 1
# 6 elements written
f 91/91/91 92/92/92 93/93/93 
f 94/94/94 95/95/95 96/96/96 

o Group_MatrixTransform_i96059X_Geometry_7
usemtl material_224

v -5.66492 -13.8149 0.353104
v 12.3651 -13.7251 0.488403
v 12.3651 -13.7251 6.1074
v 12.3651 -13.7251 6.1074
v -5.66492 -13.8149 6.1074
v -5.66492 -13.8149 0.353104
v 12.2551 9.19482 5.9334
v 12.2551 9.19482 0.588402
v 6.24512 9.16504 0.547401
v 6.24512 9.16504 0.547401
v 6.24512 9.16504 5.9334
v 12.2551 9.19482 5.9334
v -5.7749 9.10498 0.465603
v -5.7749 9.10498 5.9334
v 0.235107 9.13477 5.9334
v 0.235107 9.13477 5.9334
v 0.235107 9.13477 0.5065
v -5.7749 9.10498 0.465603
# 18 elements written

vn 0.00492782 -0.999988 0
vn 0.00492782 -0.999988 0
vn 0.00492782 -0.999988 0
vn 0.00492785 -0.999988 -1.04538e-007
vn 0.00492785 -0.999988 -1.04538e-007
vn 0.00492785 -0.999988 -1.04538e-007
vn -0.00495486 0.999988 0
vn -0.00495486 0.999988 0
vn -0.00495486 0.999988 0
vn -0.00495486 0.999988 0
vn -0.00495486 0.999988 0
vn -0.00495486 0.999988 0
vn -0.00495486 0.999988 0
vn -0.00495486 0.999988 0
vn -0.00495486 0.999988 0
vn -0.00495486 0.999988 0
vn -0.00495486 0.999988 0
vn -0.00495486 0.999988 0
# 18 elements written

vt 0.00151062 0.00392961
vt 2.99851 0.00392961
vt 2.99851 0.9995
vt 2.99851 0.9995
vt 0.00151062 0.999501
vt 0.00151062 0.00392961
vt 0.00151062 1
vt 0.00151062 0.00392961
vt 1.00051 0.00392961
vt 1.00051 0.00392961
vt 1.00051 1
vt 0.00151062 1
vt 2.99851 0.00392961
vt 2.99851 1
vt 1.99951 1
vt 1.99951 1
vt 1.99951 0.00392961
vt 2.99851 0.00392961
# 18 elements written
f 97/97/97 98/98/98 99/99/99 
f 100/100/100 101/101/101 102/102/102 
f 103/103/103 104/104/104 105/105/105 
f 106/106/106 107/107/107 108/108/108 
f 109/109/109 110/110/110 111/111/111 
f 112/112/112 113/113/113 114/114/114 

o Group_MatrixTransform_i96059X_Geometry_8
usemtl material_225

v 12.3151 -3.70508 7.5044
v 12.2551 9.19482 5.9334
v 6.24512 9.16504 5.9334
v 12.3151 -3.70508 7.5044
v 6.24512 9.16504 5.9334
v 0.235107 9.13477 5.9334
v 12.3151 -3.70508 7.5044
v 0.235107 9.13477 5.9334
v -5.7749 9.10498 5.9334
v 12.3151 -3.70508 7.5044
v -5.7749 9.10498 5.9334
v -5.71497 -3.79492 7.5044
v -5.66492 -13.8149 6.1074
v 12.3651 -13.7251 6.1074
v 12.3151 -3.70508 7.5044
v 12.3151 -3.70508 7.5044
v -5.71497 -3.79492 7.5044
v -5.66492 -13.8149 6.1074
# 18 elements written

vn -0.000599056 0.120901 0.992664
vn -0.000599056 0.120901 0.992664
vn -0.000599056 0.120901 0.992664
vn -0.000589269 0.120906 0.992664
vn -0.000589269 0.120906 0.992664
vn -0.000589269 0.120906 0.992664
vn -0.000599033 0.120897 0.992665
vn -0.000599033 0.120897 0.992665
vn -0.000599033 0.120897 0.992665
vn -0.000602298 0.120892 0.992665
vn -0.000602298 0.120892 0.992665
vn -0.000602298 0.120892 0.992665
vn 0.000680177 -0.137983 0.990434
vn 0.000680177 -0.137983 0.990434
vn 0.000680177 -0.137983 0.990434
vn 0.000687503 -0.137996 0.990433
vn 0.000687503 -0.137996 0.990433
vn 0.000687503 -0.137996 0.990433
# 18 elements written

vt 0.905728 0.495592
vt 0.791926 0.987383
vt 0.528761 0.939959
vt 0.905728 0.495592
vt 0.528761 0.939959
vt 0.265596 0.892535
vt 0.905728 0.495592
vt 0.265596 0.892535
vt 0.00243172 0.845111
vt 0.905728 0.495592
vt 0.00243172 0.845111
vt 0.114107 0.352888
vt 0.209206 0
vt 0.998396 0.142298
vt 0.905728 0.495592
vt 0.905728 0.495592
vt 0.114107 0.352888
vt 0.209206 0
# 18 elements written
f 115/115/115 116/116/116 117/117/117 
f 118/118/118 119/119/119 120/120/120 
f 121/121/121 122/122/122 123/123/123 
f 124/124/124 125/125/125 126/126/126 
f 127/127/127 128/128/128 129/129/129 
f 130/130/130 131/131/131 132/132/132 

o Group_MatrixTransform_i96059X_Geometry_9
usemtl material_226

v -5.75488 13.8149 6.4854
v -12.845 13.7949 5.9334
v -12.7749 -13.7148 5.9334
v -5.74487 9.11475 6.4854
v -5.75488 13.8149 6.4854
v -12.7749 -13.7148 5.9334
v -12.7749 -13.7148 5.9334
v -5.68494 -13.6948 6.4854
v -5.74487 9.11475 6.4854
# 9 elements written

vn -0.0776314 -0.000208731 0.996982
vn -0.0776314 -0.000208731 0.996982
vn -0.0776314 -0.000208731 0.996982
vn -0.077628 -0.000209588 0.996982
vn -0.077628 -0.000209588 0.996982
vn -0.077628 -0.000209588 0.996982
vn -0.0776315 -0.00020853 0.996982
vn -0.0776315 -0.00020853 0.996982
vn -0.0776315 -0.00020853 0.996982
# 9 elements written

vt 0.553139 0.998108
vt 0 0.953613
vt 0.445902 0
vt 0.629342 0.834962
vt 0.553139 0.998108
vt 0.445902 0
vt 0.445902 0
vt 0.999072 0.04339
vt 0.629342 0.834962
# 9 elements written
f 133/133/133 134/134/134 135/135/135 
f 136/136/136 137/137/137 138/138/138 
f 139/139/139 140/140/140 141/141/141 
