# file written by OpenSceneGraph

mtllib i96149.mtl


g Group_0

g Group_MatrixTransform_0

o Group_MatrixTransform_i96149_Geometry_0
usemtl material_240

v 36.845 17.6499 5.514
v 36.845 17.6499 0.0999985
v 12.275 16.75 0.0999985
v 12.275 16.75 0.0999985
v 12.275 16.75 5.514
v 36.845 17.6499 5.514
v -36.8351 -17.6499 5.514
v -36.8351 -17.6499 0
v 8.77502 -15.98 0.121799
v 8.77502 -15.98 0.121799
v 8.77502 -15.98 5.514
v -36.8351 -17.6499 5.514
# 12 elements written

vn -0.036604 0.99933 0
vn -0.036604 0.99933 0
vn -0.036604 0.99933 0
vn -0.036624 0.999329 9.09539e-005
vn -0.036624 0.999329 9.09539e-005
vn -0.036624 0.999329 9.09539e-005
vn 0.036621 -0.999329 0
vn 0.036621 -0.999329 0
vn 0.036621 -0.999329 0
vn 0.036621 -0.999329 0
vn 0.036621 -0.999329 0
vn 0.036621 -0.999329 0
# 12 elements written

vt 0.00198364 0.9995
vt 0.00198364 0.000499725
vt 3.998 0.000499725
vt 3.998 0.000499725
vt 3.99799 0.9995
vt 0.00198364 0.9995
vt 0.00249863 0.999501
vt 0.00249863 0.000499725
vt 4.9975 0.0225735
vt 4.9975 0.0225735
vt 4.9975 0.999501
vt 0.00249863 0.999501
# 12 elements written
f 1/1/1 2/2/2 3/3/3 
f 4/4/4 5/5/5 6/6/6 
f 7/7/7 8/8/8 9/9/9 
f 10/10/10 11/11/11 12/12/12 

o Group_MatrixTransform_i96149_Geometry_1
usemtl material_241

v 38.0349 -14.9102 0.200001
v 37.725 -6.41016 0.200001
v 37.725 -6.41016 6.357
v 37.725 -6.41016 6.357
v 38.0349 -14.9102 5.514
v 38.0349 -14.9102 0.200001
v 37.4249 1.64014 0.200001
v 37.145 9.29004 0.1731
v 37.145 9.29004 6.357
v 37.145 9.29004 6.357
v 37.4249 1.64014 5.514
v 37.4249 1.64014 0.200001
v -38.025 14.9102 0.0999985
v -37.725 6.54004 0.0999985
v -37.725 6.54004 6.357
v -37.725 6.54004 6.357
v -38.025 14.9102 5.514
v -38.025 14.9102 0.0999985
v -37.4351 -1.1001 0.0999985
v -37.425 -1.54004 0.0999985
v -37.425 -1.54004 5.514
v -37.425 -1.54004 5.514
v -37.4351 -1.1001 5.514
v -37.4351 -1.1001 0.0999985
v -37.425 -1.54004 0.0999985
v -37.145 -9.1499 0
v -37.145 -9.1499 6.357
v -37.145 -9.1499 6.357
v -37.425 -1.54004 5.514
v -37.425 -1.54004 0.0999985
# 30 elements written

vn 0.999329 0.0366151 0
vn 0.999329 0.0366151 0
vn 0.999329 0.0366151 0
vn 0.999329 0.0366293 -1.95903e-005
vn 0.999329 0.0366293 -1.95903e-005
vn 0.999329 0.0366293 -1.95903e-005
vn 0.999329 0.0366204 0
vn 0.999329 0.0366204 0
vn 0.999329 0.0366204 0
vn 0.999329 0.0366388 -2.2956e-005
vn 0.999329 0.0366388 -2.2956e-005
vn 0.999329 0.0366388 -2.2956e-005
vn -0.999329 -0.0366238 0
vn -0.999329 -0.0366238 0
vn -0.999329 -0.0366238 0
vn -0.999329 -0.0366238 -0
vn -0.999329 -0.0366238 -0
vn -0.999329 -0.0366238 -0
vn -0.999324 -0.0367729 1.92154e-005
vn -0.999324 -0.0367729 1.92154e-005
vn -0.999324 -0.0367729 1.92154e-005
vn -0.999315 -0.0370117 -0
vn -0.999315 -0.0370117 -0
vn -0.999315 -0.0370117 -0
vn -0.999329 -0.0366147 0
vn -0.999329 -0.0366147 0
vn -0.999329 -0.0366147 0
vn -0.99933 -0.036599 1.92312e-005
vn -0.99933 -0.036599 1.92312e-005
vn -0.99933 -0.036599 1.92312e-005
# 30 elements written

vt 0.000549316 0.000499249
vt 0.996301 0.000499249
vt 0.996301 0.9995
vt 0.996301 0.9995
vt 0.000549316 0.82066
vt 0.000549316 0.000499249
vt 0.00535173 0.00484514
vt 0.984921 0.000499249
vt 0.984921 0.9995
vt 0.984921 0.9995
vt 0.00535173 0.821477
vt 0.00535173 0.00484514
vt 0.000488281 0.000498772
vt 0.9939 0.000498772
vt 0.9939 0.9995
vt 0.9939 0.9995
vt 0.000488281 0.822335
vt 0.000488281 0.000498772
vt 0.00245308 0
vt 0.0544434 0
vt 0.0544434 0.827742
vt 0.0544434 0.827742
vt 0.00245308 0.827742
vt 0.00245308 0
vt 0.0544434 0
vt 0.999512 0
vt 0.999512 0.999501
vt 0.999512 0.999501
vt 0.0544434 0.827742
vt 0.0544434 0
# 30 elements written
f 13/13/13 14/14/14 15/15/15 
f 16/16/16 17/17/17 18/18/18 
f 19/19/19 20/20/20 21/21/21 
f 22/22/22 23/23/23 24/24/24 
f 25/25/25 26/26/26 27/27/27 
f 28/28/28 29/29/29 30/30/30 
f 31/31/31 32/32/32 33/33/33 
f 34/34/34 35/35/35 36/36/36 
f 37/37/37 38/38/38 39/39/39 
f 40/40/40 41/41/41 42/42/42 

o Group_MatrixTransform_i96149_Geometry_2
usemtl material_242

v 37.725 -6.41016 0.200001
v 37.4449 1.20996 0.200001
v 37.4449 1.20996 5.514
v 37.4449 1.20996 5.514
v 37.725 -6.41016 6.357
v 37.725 -6.41016 0.200001
v 37.4449 1.20996 0.200001
v 37.4249 1.64014 0.200001
v 37.4249 1.64014 5.514
v 37.4249 1.64014 5.514
v 37.4449 1.20996 5.514
v 37.4449 1.20996 0.200001
v 37.145 9.29004 0.1731
v 36.845 17.6499 0.0999985
v 36.845 17.6499 5.514
v 36.845 17.6499 5.514
v 37.145 9.29004 6.357
v 37.145 9.29004 0.1731
v -37.725 6.54004 0.0999985
v -37.4351 -1.1001 0.0999985
v -37.4351 -1.1001 5.514
v -37.4351 -1.1001 5.514
v -37.725 6.54004 6.357
v -37.725 6.54004 0.0999985
v -37.145 -9.1499 0
v -36.8351 -17.6499 0
v -36.8351 -17.6499 5.514
v -36.8351 -17.6499 5.514
v -37.145 -9.1499 6.357
v -37.145 -9.1499 0
# 30 elements written

vn 0.999329 0.0366171 3.36459e-006
vn 0.999329 0.0366171 3.36459e-006
vn 0.999329 0.0366171 3.36459e-006
vn 0.999329 0.0366194 0
vn 0.999329 0.0366194 0
vn 0.999329 0.0366194 0
vn 0.999324 0.0367729 -2.29559e-005
vn 0.999324 0.0367729 -2.29559e-005
vn 0.999324 0.0367729 -2.29559e-005
vn 0.999335 0.0364516 3.34939e-006
vn 0.999335 0.0364516 3.34939e-006
vn 0.999335 0.0364516 3.34939e-006
vn 0.999329 0.0366259 0
vn 0.999329 0.0366259 0
vn 0.999329 0.0366259 0
vn 0.999329 0.0366259 0
vn 0.999329 0.0366259 0
vn 0.999329 0.0366259 0
vn -0.999329 -0.0366227 0
vn -0.999329 -0.0366227 0
vn -0.999329 -0.0366227 0
vn -0.999329 -0.0366227 -0
vn -0.999329 -0.0366227 -0
vn -0.999329 -0.0366227 -0
vn -0.999329 -0.0366315 0
vn -0.999329 -0.0366315 0
vn -0.999329 -0.0366315 0
vn -0.999329 -0.0366315 -0
vn -0.999329 -0.0366315 -0
vn -0.999329 -0.0366315 -0
# 30 elements written

vt 0.00491564 0.000499249
vt 0.945557 0.000499249
vt 0.945557 0.820149
vt 0.945557 0.820149
vt 0.00491564 0.9995
vt 0.00491564 0.000499249
vt 0.945557 0.000499249
vt 0.999512 0.000499249
vt 0.999512 0.820149
vt 0.999512 0.820149
vt 0.945557 0.820149
vt 0.945557 0.000499249
vt 0.00316905 0
vt 0.999512 0
vt 0.999512 0.814401
vt 0.999512 0.814401
vt 0.00316905 0.9995
vt 0.00316905 0
vt 0.0034271 0.000499249
vt 0.993978 0.000499249
vt 0.993978 0.823754
vt 0.993978 0.823754
vt 0.0034271 0.9995
vt 0.0034271 0.000499249
vt 0.00712931 0.000499725
vt 0.999451 0.000499725
vt 0.999451 0.820979
vt 0.999451 0.820979
vt 0.00712931 0.999501
vt 0.00712931 0.000499725
# 30 elements written
f 43/43/43 44/44/44 45/45/45 
f 46/46/46 47/47/47 48/48/48 
f 49/49/49 50/50/50 51/51/51 
f 52/52/52 53/53/53 54/54/54 
f 55/55/55 56/56/56 57/57/57 
f 58/58/58 59/59/59 60/60/60 
f 61/61/61 62/62/62 63/63/63 
f 64/64/64 65/65/65 66/66/66 
f 67/67/67 68/68/68 69/69/69 
f 70/70/70 71/71/71 72/72/72 

o Group_MatrixTransform_i96149_Geometry_3
usemtl material_243

v -36.6851 -6.39014 4.282
v -38.095 -6.41992 4.282
v -38.095 -6.41992 4.582
v -38.095 -6.41992 4.582
v -36.6851 -6.39014 4.582
v -36.6851 -6.39014 4.282
v -38.095 -6.41992 4.282
v -38.025 -11.98 4.282
v -38.025 -11.98 4.582
v -38.025 -11.98 4.582
v -38.095 -6.41992 4.582
v -38.095 -6.41992 4.282
v -38.025 -11.98 4.282
v -36.615 -11.9502 4.282
v -36.615 -11.9502 4.582
v -36.615 -11.9502 4.582
v -38.025 -11.98 4.582
v -38.025 -11.98 4.282
v -36.615 -11.9502 4.282
v -36.6851 -6.39014 4.282
v -36.6851 -6.39014 4.582
v -36.6851 -6.39014 4.582
v -36.615 -11.9502 4.582
v -36.615 -11.9502 4.282
v -37.245 8.29004 3.846
v -38.655 8.25977 3.846
v -38.655 8.25977 4.146
v -38.655 8.25977 4.146
v -37.245 8.29004 4.146
v -37.245 8.29004 3.846
v -38.655 8.25977 3.846
v -38.5851 4.79004 3.846
v -38.5851 4.79004 4.146
v -38.5851 4.79004 4.146
v -38.655 8.25977 4.146
v -38.655 8.25977 3.846
v -38.5851 4.79004 3.846
v -37.175 4.81982 3.846
v -37.175 4.81982 4.146
v -37.175 4.81982 4.146
v -38.5851 4.79004 4.146
v -38.5851 4.79004 3.846
v -37.175 4.81982 3.846
v -37.245 8.29004 3.846
v -37.245 8.29004 4.146
v -37.245 8.29004 4.146
v -37.175 4.81982 4.146
v -37.175 4.81982 3.846
v 38.025 6.7998 4.2282
v 37.9249 12.25 4.2945
v 37.9249 12.25 4.5946
v 37.9249 12.25 4.5946
v 38.025 6.7998 4.5282
v 38.025 6.7998 4.2282
v 37.9249 12.25 4.2945
v 36.505 12.21 4.2945
v 36.505 12.21 4.5945
v 36.505 12.21 4.5945
v 37.9249 12.25 4.5946
v 37.9249 12.25 4.2945
v 36.505 12.21 4.2945
v 36.595 6.75977 4.2282
v 36.595 6.75977 4.5282
v 36.595 6.75977 4.5282
v 36.505 12.21 4.5945
v 36.505 12.21 4.2945
v 36.595 6.75977 4.2282
v 38.025 6.7998 4.2282
v 38.025 6.7998 4.5282
v 38.025 6.7998 4.5282
v 36.595 6.75977 4.5282
v 36.595 6.75977 4.2282
v 38.655 -9.37988 4.2757
v 38.485 -3.66992 4.2757
v 38.485 -3.66992 4.5757
v 38.485 -3.66992 4.5757
v 38.655 -9.37988 4.5757
v 38.655 -9.37988 4.2757
v 38.485 -3.66992 4.2757
v 36.9149 -3.75 4.2757
v 36.9149 -3.75 4.5757
v 36.9149 -3.75 4.5757
v 38.485 -3.66992 4.5757
v 38.485 -3.66992 4.2757
v 36.9149 -3.75 4.2757
v 37.095 -9.45996 4.2757
v 37.095 -9.45996 4.5757
v 37.095 -9.45996 4.5757
v 36.9149 -3.75 4.5757
v 36.9149 -3.75 4.2757
v 37.095 -9.45996 4.2757
v 38.655 -9.37988 4.2757
v 38.655 -9.37988 4.5757
v 38.655 -9.37988 4.5757
v 37.095 -9.45996 4.5757
v 37.095 -9.45996 4.2757
v -36.615 -11.9502 4.282
v -38.025 -11.98 4.282
v -38.095 -6.41992 4.282
v -38.095 -6.41992 4.282
v -36.6851 -6.39014 4.282
v -36.615 -11.9502 4.282
v -37.175 4.81982 3.846
v -38.5851 4.79004 3.846
v -38.655 8.25977 3.846
v -38.655 8.25977 3.846
v -37.245 8.29004 3.846
v -37.175 4.81982 3.846
v 36.595 6.75977 4.2282
v 36.505 12.21 4.2945
v 37.9249 12.25 4.2945
v 37.9249 12.25 4.2945
v 38.025 6.7998 4.2282
v 36.595 6.75977 4.2282
v 37.095 -9.45996 4.2757
v 36.9149 -3.75 4.2757
v 38.485 -3.66992 4.2757
v 38.485 -3.66992 4.2757
v 38.655 -9.37988 4.2757
v 37.095 -9.45996 4.2757
# 120 elements written

vn -0.0204871 0.99979 0
vn -0.0204871 0.99979 0
vn -0.0204871 0.99979 0
vn -0.0204871 0.99979 0
vn -0.0204871 0.99979 0
vn -0.0204871 0.99979 0
vn -0.999914 -0.0131233 0
vn -0.999914 -0.0131233 0
vn -0.999914 -0.0131233 0
vn -0.999914 -0.0131233 -0
vn -0.999914 -0.0131233 -0
vn -0.999914 -0.0131233 -0
vn 0.0215284 -0.999768 0
vn 0.0215284 -0.999768 0
vn 0.0215284 -0.999768 0
vn 0.0215284 -0.999768 0
vn 0.0215284 -0.999768 0
vn 0.0215284 -0.999768 0
vn 0.999914 0.0131267 0
vn 0.999914 0.0131267 0
vn 0.999914 0.0131267 0
vn 0.999914 0.0131267 0
vn 0.999914 0.0131267 0
vn 0.999914 0.0131267 0
vn -0.0208324 0.999783 0
vn -0.0208324 0.999783 0
vn -0.0208324 0.999783 0
vn -0.0208324 0.999783 0
vn -0.0208324 0.999783 0
vn -0.0208324 0.999783 0
vn -0.999778 -0.0210635 0
vn -0.999778 -0.0210635 0
vn -0.999778 -0.0210635 0
vn -0.999778 -0.0210635 -0
vn -0.999778 -0.0210635 -0
vn -0.999778 -0.0210635 -0
vn 0.0204712 -0.99979 0
vn 0.0204712 -0.99979 0
vn 0.0204712 -0.99979 0
vn 0.0204712 -0.99979 0
vn 0.0204712 -0.99979 0
vn 0.0204712 -0.99979 0
vn 0.999772 0.0213422 0
vn 0.999772 0.0213422 0
vn 0.999772 0.0213422 0
vn 0.999772 0.0213422 0
vn 0.999772 0.0213422 0
vn 0.999772 0.0213422 0
vn 0.999851 0.01724 2.80596e-005
vn 0.999851 0.01724 2.80596e-005
vn 0.999851 0.01724 2.80596e-005
vn 0.999851 0.0172419 0
vn 0.999851 0.0172419 0
vn 0.999851 0.0172419 0
vn -0.0273449 0.999626 0
vn -0.0273449 0.999626 0
vn -0.0273449 0.999626 0
vn -0.0270033 0.999634 0.00162699
vn -0.0270033 0.999634 0.00162699
vn -0.0270033 0.999634 0.00162699
vn -0.999855 -0.017061 -2.77686e-005
vn -0.999855 -0.017061 -2.77686e-005
vn -0.999855 -0.017061 -2.77686e-005
vn -0.999855 -0.0170598 -0
vn -0.999855 -0.0170598 -0
vn -0.999855 -0.0170598 -0
vn 0.0273262 -0.999627 0
vn 0.0273262 -0.999627 0
vn 0.0273262 -0.999627 0
vn 0.0276675 -0.999616 -0.00162698
vn 0.0276675 -0.999616 -0.00162698
vn 0.0276675 -0.999616 -0.00162698
vn 0.999525 0.0308079 -0.000406709
vn 0.999525 0.0308079 -0.000406709
vn 0.999525 0.0308079 -0.000406709
vn 0.999526 0.0307865 0
vn 0.999526 0.0307865 0
vn 0.999526 0.0307865 0
vn -0.0523788 0.998627 0
vn -0.0523788 0.998627 0
vn -0.0523788 0.998627 0
vn -0.0523748 0.998628 2.13114e-005
vn -0.0523748 0.998628 2.13114e-005
vn -0.0523748 0.998628 2.13114e-005
vn -0.999525 -0.0308079 0
vn -0.999525 -0.0308079 0
vn -0.999525 -0.0308079 0
vn -0.999525 -0.0308079 -0
vn -0.999525 -0.0308079 -0
vn -0.999525 -0.0308079 -0
vn 0.0523788 -0.998627 0
vn 0.0523788 -0.998627 0
vn 0.0523788 -0.998627 0
vn 0.0523788 -0.998627 0
vn 0.0523788 -0.998627 0
vn 0.0523788 -0.998627 0
vn 0 0 -1
vn 0 0 -1
vn 0 0 -1
vn 0 0 -1
vn 0 0 -1
vn 0 0 -1
vn 0 0 -1
vn 0 0 -1
vn 0 0 -1
vn 0 0 -1
vn 0 0 -1
vn 0 0 -1
vn -0.000332926 0.0121705 -0.999926
vn -0.000332926 0.0121705 -0.999926
vn -0.000332926 0.0121705 -0.999926
vn -0.000332697 0.0121705 -0.999926
vn -0.000332697 0.0121705 -0.999926
vn -0.000332697 0.0121705 -0.999926
vn 0 0 -1
vn 0 0 -1
vn 0 0 -1
vn 0 0 -1
vn 0 0 -1
vn 0 0 -1
# 120 elements written

vt 0.0264893 0.424999
vt 0.729431 0.424999
vt 0.729431 0.574999
vt 0.729431 0.574999
vt 0.0264893 0.574999
vt 0.0264893 0.424999
vt 3.56006 0.424999
vt 5.29272 0.424999
vt 5.29272 0.574999
vt 5.29272 0.574999
vt 3.56006 0.574999
vt 3.56006 0.424999
vt 0.307068 0.424999
vt 1.01001 0.424999
vt 1.01001 0.574999
vt 1.01001 0.574999
vt 0.307068 0.574999
vt 0.307068 0.424999
vt -4.27759 0.424999
vt -2.54565 0.424999
vt -2.54565 0.574999
vt -2.54565 0.574999
vt -4.27759 0.574999
vt -4.27759 0.424999
vt 0.306946 0.424999
vt 1.00995 0.424999
vt 1.00995 0.574999
vt 1.00995 0.574999
vt 0.306946 0.574999
vt 0.306946 0.424999
vt -4.27832 0.424999
vt -2.5459 0.424999
vt -2.5459 0.574999
vt -2.5459 0.574999
vt -4.27832 0.574999
vt -4.27832 0.424999
vt 0.0265503 0.424999
vt 0.730042 0.424999
vt 0.730042 0.574999
vt 0.730042 0.574999
vt 0.0265503 0.574999
vt 0.0265503 0.424999
vt 3.5603 0.424999
vt 5.29297 0.424999
vt 5.29297 0.574999
vt 5.29297 0.574999
vt 3.5603 0.574999
vt 3.5603 0.424999
vt 3.59204 0.446999
vt 5.31055 0.446999
vt 5.31055 0.596998
vt 5.31055 0.596998
vt 3.59204 0.596998
vt 3.59204 0.446999
vt 0.325012 0.446999
vt 1.039 0.446999
vt 1.039 0.596998
vt 1.039 0.596998
vt 0.325012 0.596998
vt 0.325012 0.446999
vt -4.29102 0.446999
vt -2.57251 0.446999
vt -2.57251 0.596998
vt -2.57251 0.596998
vt -4.29102 0.596998
vt -4.29102 0.446999
vt 0.00750732 0.446999
vt 0.721985 0.446999
vt 0.721985 0.596998
vt 0.721985 0.596998
vt 0.00750732 0.596998
vt 0.00750732 0.446999
vt -4.26953 0.403
vt -2.5835 0.403
vt -2.5835 0.552999
vt -2.5835 0.552999
vt -4.26953 0.552999
vt -4.26953 0.403
vt 0.0490112 0.403
vt 0.830994 0.403
vt 0.830994 0.552999
vt 0.830994 0.552999
vt 0.0490112 0.552999
vt 0.0490112 0.403
vt 3.62451 0.403
vt 5.31055 0.403
vt 5.31055 0.552999
vt 5.31055 0.552999
vt 3.62451 0.552999
vt 3.62451 0.403
vt 0.257019 0.403
vt 1.039 0.403
vt 1.039 0.552999
vt 1.039 0.552999
vt 0.257019 0.552999
vt 0.257019 0.403
vt -0.0100098 -4.27759
vt 0.692932 -4.29272
vt 0.729431 -2.56006
vt 0.729431 -2.56006
vt 0.0264893 -2.54565
vt -0.0100098 -4.27759
vt 0.269958 3.5603
vt 0.97345 3.5459
vt 1.00995 5.27832
vt 1.00995 5.27832
vt 0.306946 5.29297
vt 0.269958 3.5603
vt 0.992493 3.57251
vt 1.039 5.29102
vt 0.325012 5.31055
vt 0.325012 5.31055
vt 0.278015 3.59204
vt 0.992493 3.57251
vt 0.742981 -4.31055
vt 0.830994 -2.62451
vt 0.0490112 -2.5835
vt 0.0490112 -2.5835
vt -0.0390015 -4.26953
vt 0.742981 -4.31055
# 120 elements written
f 73/73/73 74/74/74 75/75/75 
f 76/76/76 77/77/77 78/78/78 
f 79/79/79 80/80/80 81/81/81 
f 82/82/82 83/83/83 84/84/84 
f 85/85/85 86/86/86 87/87/87 
f 88/88/88 89/89/89 90/90/90 
f 91/91/91 92/92/92 93/93/93 
f 94/94/94 95/95/95 96/96/96 
f 97/97/97 98/98/98 99/99/99 
f 100/100/100 101/101/101 102/102/102 
f 103/103/103 104/104/104 105/105/105 
f 106/106/106 107/107/107 108/108/108 
f 109/109/109 110/110/110 111/111/111 
f 112/112/112 113/113/113 114/114/114 
f 115/115/115 116/116/116 117/117/117 
f 118/118/118 119/119/119 120/120/120 
f 121/121/121 122/122/122 123/123/123 
f 124/124/124 125/125/125 126/126/126 
f 127/127/127 128/128/128 129/129/129 
f 130/130/130 131/131/131 132/132/132 
f 133/133/133 134/134/134 135/135/135 
f 136/136/136 137/137/137 138/138/138 
f 139/139/139 140/140/140 141/141/141 
f 142/142/142 143/143/143 144/144/144 
f 145/145/145 146/146/146 147/147/147 
f 148/148/148 149/149/149 150/150/150 
f 151/151/151 152/152/152 153/153/153 
f 154/154/154 155/155/155 156/156/156 
f 157/157/157 158/158/158 159/159/159 
f 160/160/160 161/161/161 162/162/162 
f 163/163/163 164/164/164 165/165/165 
f 166/166/166 167/167/167 168/168/168 
f 169/169/169 170/170/170 171/171/171 
f 172/172/172 173/173/173 174/174/174 
f 175/175/175 176/176/176 177/177/177 
f 178/178/178 179/179/179 180/180/180 
f 181/181/181 182/182/182 183/183/183 
f 184/184/184 185/185/185 186/186/186 
f 187/187/187 188/188/188 189/189/189 
f 190/190/190 191/191/191 192/192/192 

o Group_MatrixTransform_i96149_Geometry_4
usemtl material_244

v 12.275 16.75 5.514
v 12.275 16.75 0.0999985
v -38.025 14.9102 0.0999985
v -38.025 14.9102 0.0999985
v -38.025 14.9102 5.514
v 12.275 16.75 5.514
v 8.77502 -15.98 5.514
v 8.77502 -15.98 0.121799
v 38.0349 -14.9102 0.200001
v 38.0349 -14.9102 0.200001
v 38.0349 -14.9102 5.514
v 8.77502 -15.98 5.514
# 12 elements written

vn -0.0366296 0.999329 9.0954e-005
vn -0.0366296 0.999329 9.0954e-005
vn -0.0366296 0.999329 9.0954e-005
vn -0.0366199 0.999329 0
vn -0.0366199 0.999329 0
vn -0.0366199 0.999329 0
vn 0.0366217 -0.999329 0
vn 0.0366217 -0.999329 0
vn 0.0366217 -0.999329 0
vn 0.0366049 -0.99933 -9.26651e-005
vn 0.0366049 -0.99933 -9.26651e-005
vn 0.0366049 -0.99933 -9.26651e-005
# 12 elements written

vt 0.00299835 0.9995
vt 0.0030098 0.000499725
vt 5.997 0.000499725
vt 5.997 0.000499725
vt 5.997 0.9995
vt 0.00299835 0.9995
vt 0.00207386 0.999501
vt 0.00207386 0
vt 4.14793 0
vt 4.14793 0
vt 4.14793 0.999501
vt 0.00207386 0.999501
# 12 elements written
f 193/193/193 194/194/194 195/195/195 
f 196/196/196 197/197/197 198/198/198 
f 199/199/199 200/200/200 201/201/201 
f 202/202/202 203/203/203 204/204/204 

o Group_MatrixTransform_i96149_Geometry_5
usemtl material_245

v 37.095 -9.45996 4.5757
v 38.655 -9.37988 4.5757
v 38.485 -3.66992 4.5757
v 38.485 -3.66992 4.5757
v 36.9149 -3.75 4.5757
v 37.095 -9.45996 4.5757
# 6 elements written

vn 0 0 1
vn 0 0 1
vn 0 0 1
vn 0 0 1
vn 0 0 1
vn 0 0 1
# 6 elements written

vt 0.353644 0
vt 0.985382 0.106753
vt 0.631803 0.9901
vt 0.631803 0.9901
vt 0 0.883346
vt 0.353644 0
# 6 elements written
f 205/205/205 206/206/206 207/207/207 
f 208/208/208 209/209/209 210/210/210 

o Group_MatrixTransform_i96149_Geometry_6
usemtl material_246

v 36.595 6.75977 4.5282
v 38.025 6.7998 4.5282
v 37.9249 12.25 4.5946
v 37.9249 12.25 4.5946
v 36.505 12.21 4.5945
v 36.595 6.75977 4.5282
# 6 elements written

vn 0.000336903 -0.0121722 0.999926
vn 0.000336903 -0.0121722 0.999926
vn 0.000336903 -0.0121722 0.999926
vn 0.000326067 -0.0121696 0.999926
vn 0.000326067 -0.0121696 0.999926
vn 0.000326067 -0.0121696 0.999926
# 6 elements written

vt 0.351286 0
vt 0.977712 0.088039
vt 0.626051 0.994056
vt 0.626051 0.994056
vt 0 0.906072
vt 0.351286 0
# 6 elements written
f 211/211/211 212/212/212 213/213/213 
f 214/214/214 215/215/215 216/216/216 

o Group_MatrixTransform_i96149_Geometry_7
usemtl material_247

v -37.145 -9.1499 6.357
v -36.8351 -17.6499 5.514
v 38.0349 -14.9102 5.514
v 37.725 -6.41016 6.357
v -37.145 -9.1499 6.357
v 38.0349 -14.9102 5.514
v 37.4449 1.20996 5.514
v -37.425 -1.54004 5.514
v -37.145 -9.1499 6.357
v 37.4449 1.20996 5.514
v -37.145 -9.1499 6.357
v 37.725 -6.41016 6.357
v 37.4449 1.20996 5.514
v 37.4249 1.64014 5.514
v -37.4351 -1.1001 5.514
v -37.425 -1.54004 5.514
v 37.4449 1.20996 5.514
v -37.4351 -1.1001 5.514
v -37.4351 -1.1001 5.514
v 37.4249 1.64014 5.514
v 37.145 9.29004 6.357
v -37.4351 -1.1001 5.514
v 37.145 9.29004 6.357
v -37.725 6.54004 6.357
v 36.845 17.6499 5.514
v -38.025 14.9102 5.514
v -37.725 6.54004 6.357
v 36.845 17.6499 5.514
v -37.725 6.54004 6.357
v 37.145 9.29004 6.357
# 30 elements written

vn 0.0036118 -0.0985772 0.995123
vn 0.0036118 -0.0985772 0.995123
vn 0.0036118 -0.0985772 0.995123
vn 0.00361264 -0.0985664 0.995124
vn 0.00361264 -0.0985664 0.995124
vn 0.00361264 -0.0985664 0.995124
vn -0.00402645 0.109873 0.993937
vn -0.00402645 0.109873 0.993937
vn -0.00402645 0.109873 0.993937
vn -0.00402741 0.10988 0.993937
vn -0.00402741 0.10988 0.993937
vn -0.00402741 0.10988 0.993937
vn -2.70006e-007 8.75839e-006 1
vn -2.70006e-007 8.75839e-006 1
vn -2.70006e-007 8.75839e-006 1
vn 2.70002e-007 -8.75823e-006 1
vn 2.70002e-007 -8.75823e-006 1
vn 2.70002e-007 -8.75823e-006 1
vn 0.00401119 -0.109457 0.993983
vn 0.00401119 -0.109457 0.993983
vn 0.00401119 -0.109457 0.993983
vn 0.0040121 -0.109464 0.993983
vn 0.0040121 -0.109464 0.993983
vn 0.0040121 -0.109464 0.993983
vn -0.00367007 0.10015 0.994966
vn -0.00367007 0.10015 0.994966
vn -0.00367007 0.10015 0.994966
vn -0.00367093 0.100156 0.994965
vn -0.00367093 0.100156 0.994965
vn -0.00367093 0.100156 0.994965
# 30 elements written

vt 0.068679 0.16294
vt 0.0964 0.0170221
vt 0.999357 0.375883
vt 0.973382 0.522376
vt 0.068679 0.16294
vt 0.999357 0.375883
vt 0.952126 0.675491
vt 0.048711 0.316681
vt 0.068679 0.16294
vt 0.952126 0.675491
vt 0.068679 0.16294
vt 0.973382 0.522376
vt 0.952126 0.675491
vt 0.95085 0.684038
vt 0.047423 0.325229
vt 0.048711 0.316681
vt 0.952126 0.675491
vt 0.047423 0.325229
vt 0.047423 0.325229
vt 0.95085 0.684038
vt 0.927277 0.831432
vt 0.047423 0.325229
vt 0.927277 0.831432
vt 0.022127 0.472052
vt 0.908743 0.984295
vt 0.00486345 0.625548
vt 0.022127 0.472052
vt 0.908743 0.984295
vt 0.022127 0.472052
vt 0.927277 0.831432
# 30 elements written
f 217/217/217 218/218/218 219/219/219 
f 220/220/220 221/221/221 222/222/222 
f 223/223/223 224/224/224 225/225/225 
f 226/226/226 227/227/227 228/228/228 
f 229/229/229 230/230/230 231/231/231 
f 232/232/232 233/233/233 234/234/234 
f 235/235/235 236/236/236 237/237/237 
f 238/238/238 239/239/239 240/240/240 
f 241/241/241 242/242/242 243/243/243 
f 244/244/244 245/245/245 246/246/246 

o Group_MatrixTransform_i96149_Geometry_8
usemtl material_248

v -36.615 -11.9502 4.582
v -36.6851 -6.39014 4.582
v -38.095 -6.41992 4.582
v -38.095 -6.41992 4.582
v -38.025 -11.98 4.582
v -36.615 -11.9502 4.582
v -37.175 4.81982 4.146
v -37.245 8.29004 4.146
v -38.655 8.25977 4.146
v -38.655 8.25977 4.146
v -38.5851 4.79004 4.146
v -37.175 4.81982 4.146
# 12 elements written

vn 2.6986e-006 7.21456e-007 1
vn 2.6986e-006 7.21456e-007 1
vn 2.6986e-006 7.21456e-007 1
vn -2.69785e-006 -7.21256e-007 1
vn -2.69785e-006 -7.21256e-007 1
vn -2.69785e-006 -7.21256e-007 1
vn 2.68901e-006 1.15822e-006 1
vn 2.68901e-006 1.15822e-006 1
vn 2.68901e-006 1.15822e-006 1
vn -2.68756e-006 -1.15759e-006 1
vn -2.68756e-006 -1.15759e-006 1
vn -2.68756e-006 -1.15759e-006 1
# 12 elements written

vt 0.991727 0.084496
vt 0.634325 0.998063
vt 0 0.913838
vt 0 0.913838
vt 0.357566 0
vt 0.991727 0.084496
vt 0.99295 0.084253
vt 0.634643 0.998904
vt 0 0.914713
vt 0 0.914713
vt 0.357923 0
vt 0.99295 0.084253
# 12 elements written
f 247/247/247 248/248/248 249/249/249 
f 250/250/250 251/251/251 252/252/252 
f 253/253/253 254/254/254 255/255/255 
f 256/256/256 257/257/257 258/258/258 
