# file written by OpenSceneGraph

mtllib i96175.mtl


g Group_0

g Group_MatrixTransform_0

o Group_MatrixTransform_i96175_Geometry_0
usemtl material_295

v 4.96008 -3.47021 0.00529861
v 4.97009 -3.47021 6.258
v 0.150024 -3.6499 6.258
v 0.150024 -3.6499 6.258
v 0.150024 -3.6499 0.0039978
v 4.96008 -3.47021 0.00529861
v -4.66992 -3.83008 0.00259781
v -4.66992 -3.83008 6.258
v -9.48999 -4.01025 6.258
v -9.48999 -4.01025 6.258
v -9.48999 -4.01025 0.001297
v -4.66992 -3.83008 0.00259781
v 4.97009 -3.47021 6.258
v 4.96008 -3.47021 0.00529861
v 9.78003 -3.29004 0.00669861
v 9.78003 -3.29004 0.00669861
v 9.78003 -3.29004 6.258
v 4.97009 -3.47021 6.258
# 18 elements written

vn 0.0373656 -0.999302 0.00038216
vn 0.0373656 -0.999302 0.00038216
vn 0.0373656 -0.999302 0.00038216
vn 0.0372672 -0.999305 0.000306263
vn 0.0372672 -0.999305 0.000306263
vn 0.0372672 -0.999305 0.000306263
vn 0.0373665 -0.999302 0.000230365
vn 0.0373665 -0.999302 0.000230365
vn 0.0373665 -0.999302 0.000230365
vn 0.0371661 -0.999309 7.58122e-005
vn 0.0371661 -0.999309 7.58122e-005
vn 0.0371661 -0.999309 7.58122e-005
vn 0.0371661 -0.999309 0.000382206
vn 0.0371661 -0.999309 0.000382206
vn 0.0371661 -0.999309 0.000382206
vn 0.0373665 -0.999301 0.00053689
vn 0.0373665 -0.999301 0.00053689
vn 0.0373665 -0.999301 0.00053689
# 18 elements written

vt 3.99902 0.000449324
vt 3.99902 0.89955
vt 3.00001 0.89955
vt 3.00001 0.89955
vt 3.00001 0.000449324
vt 3.99902 0.000449324
vt 2.00101 0.000449324
vt 2.00101 0.89955
vt 1.002 0.89955
vt 1.002 0.89955
vt 1.002 0.000449324
vt 2.00101 0.000449324
vt 3.99902 0.89955
vt 3.99902 0.000449324
vt 4.99802 0.000449324
vt 4.99802 0.000449324
vt 4.99802 0.89955
vt 3.99902 0.89955
# 18 elements written
f 1/1/1 2/2/2 3/3/3 
f 4/4/4 5/5/5 6/6/6 
f 7/7/7 8/8/8 9/9/9 
f 10/10/10 11/11/11 12/12/12 
f 13/13/13 14/14/14 15/15/15 
f 16/16/16 17/17/17 18/18/18 

o Group_MatrixTransform_i96175_Geometry_1
usemtl material_296

v -14.3099 -4.18994 6.258
v -14.6 3.5 6.258
v -14.6 3.5 0.00799942
v -14.6 3.5 0.00799942
v -14.3099 -4.18994 0
v -14.3099 -4.18994 6.258
v 14.3201 4.58008 6.258
v 14.6001 -3.10986 6.258
v 14.6001 -3.10986 0.00799942
v 14.6001 -3.10986 0.00799942
v 14.3201 4.58008 0.00799942
v 14.3201 4.58008 6.258
# 12 elements written

vn -0.999304 -0.0373033 -0
vn -0.999304 -0.0373033 -0
vn -0.999304 -0.0373033 -0
vn -0.999304 -0.0373033 0
vn -0.999304 -0.0373033 0
vn -0.999304 -0.0373033 0
vn 0.999304 0.0372939 -0.000335591
vn 0.999304 0.0372939 -0.000335591
vn 0.999304 0.0372939 -0.000335591
vn 0.999314 0.0370216 0
vn 0.999314 0.0370216 0
vn 0.999314 0.0370216 0
# 12 elements written

vt 1.9989 0.999501
vt 0.000854492 0.999501
vt 0.000854492 0.00178194
vt 0.000854492 0.00178194
vt 1.9989 0.000500202
vt 1.9989 0.999501
vt 1.9989 0.999501
vt 0.000854492 0.999501
vt 0.000854492 0.00178194
vt 0.000854492 0.00178194
vt 1.9989 0.000500202
vt 1.9989 0.999501
# 12 elements written
f 19/19/19 20/20/20 21/21/21 
f 22/22/22 23/23/23 24/24/24 
f 25/25/25 26/26/26 27/27/27 
f 28/28/28 29/29/29 30/30/30 

o Group_MatrixTransform_i96175_Geometry_2
usemtl material_297

v -14.6 3.5 6.258
v 14.3201 4.58008 6.258
v 14.3201 4.58008 0.00799942
v 14.3201 4.58008 0.00799942
v -14.6 3.5 0.00799942
v -14.6 3.5 6.258
v -9.48999 -4.01025 0.001297
v -9.48999 -4.01025 6.258
v -14.3099 -4.18994 6.258
v -14.3099 -4.18994 6.258
v -14.3099 -4.18994 0
v -9.48999 -4.01025 0.001297
v 0.150024 -3.6499 0.0039978
v 0.150024 -3.6499 6.258
v -4.66992 -3.83008 6.258
v -4.66992 -3.83008 6.258
v -4.66992 -3.83008 0.00259781
v 0.150024 -3.6499 0.0039978
v 9.78003 -3.29004 6.258
v 9.78003 -3.29004 0.00669861
v 14.6001 -3.10986 0.00799942
v 14.6001 -3.10986 0.00799942
v 14.6001 -3.10986 6.258
v 9.78003 -3.29004 6.258
# 24 elements written

vn -0.0374338 0.999299 0
vn -0.0374338 0.999299 0
vn -0.0374338 0.999299 0
vn -0.0374338 0.999299 0
vn -0.0374338 0.999299 0
vn -0.0374338 0.999299 0
vn 0.0373665 -0.999302 7.57998e-005
vn 0.0373665 -0.999302 7.57998e-005
vn 0.0373665 -0.999302 7.57998e-005
vn 0.0372682 -0.999305 0
vn 0.0372682 -0.999305 0
vn 0.0372682 -0.999305 0
vn 0.0373665 -0.999302 0.000306246
vn 0.0373665 -0.999302 0.000306246
vn 0.0373665 -0.999302 0.000306246
vn 0.0372682 -0.999305 0.000230375
vn 0.0372682 -0.999305 0.000230375
vn 0.0372682 -0.999305 0.000230375
vn 0.0372681 -0.999305 0.000536917
vn 0.0372681 -0.999305 0.000536917
vn 0.0372681 -0.999305 0.000536917
vn 0.0373665 -0.999301 0.000612886
vn 0.0373665 -0.999301 0.000612886
vn 0.0373665 -0.999301 0.000612886
# 24 elements written

vt 5.99702 0.89955
vt 0.00299835 0.89955
vt 0.00299835 0.000449324
vt 0.00299835 0.000449324
vt 5.99702 0.000449324
vt 5.99702 0.89955
vt 1.002 0.000449324
vt 1.002 0.89955
vt 0.00299835 0.89955
vt 0.00299835 0.89955
vt 0.00299835 0.000449324
vt 1.002 0.000449324
vt 3.00001 0.000449324
vt 3.00001 0.89955
vt 2.00101 0.89955
vt 2.00101 0.89955
vt 2.00101 0.000449324
vt 3.00001 0.000449324
vt 4.99802 0.89955
vt 4.99802 0.000449324
vt 5.99702 0.000449324
vt 5.99702 0.000449324
vt 5.99702 0.89955
vt 4.99802 0.89955
# 24 elements written
f 31/31/31 32/32/32 33/33/33 
f 34/34/34 35/35/35 36/36/36 
f 37/37/37 38/38/38 39/39/39 
f 40/40/40 41/41/41 42/42/42 
f 43/43/43 44/44/44 45/45/45 
f 46/46/46 47/47/47 48/48/48 
f 49/49/49 50/50/50 51/51/51 
f 52/52/52 53/53/53 54/54/54 

o Group_MatrixTransform_i96175_Geometry_3
usemtl material_298

v -9.63 -3.70996 3.8965
v -4.69995 -3.43994 3.8965
v -4.69995 -3.43994 3.5965
v -4.69995 -3.43994 3.5965
v -9.63 -3.70996 3.5965
v -9.63 -3.70996 3.8965
v -9.58997 -4.58008 3.8385
v -9.63 -3.70996 3.8965
v -9.63 -3.70996 3.5965
v -9.63 -3.70996 3.5965
v -9.58997 -4.58008 3.5385
v -9.58997 -4.58008 3.8385
v -4.6499 -4.31006 3.8385
v -9.58997 -4.58008 3.8385
v -9.58997 -4.58008 3.5385
v -9.58997 -4.58008 3.5385
v -4.6499 -4.31006 3.5385
v -4.6499 -4.31006 3.8385
v -4.69995 -3.43994 3.8965
v -4.6499 -4.31006 3.8385
v -4.6499 -4.31006 3.5385
v -4.6499 -4.31006 3.5385
v -4.69995 -3.43994 3.5965
v -4.69995 -3.43994 3.8965
v 5.32007 -2.83008 3.989
v 10.1801 -2.62012 3.989
v 10.1801 -2.62012 3.689
v 10.1801 -2.62012 3.689
v 5.32007 -2.83008 3.689
v 5.32007 -2.83008 3.989
v 5.37 -3.87012 3.989
v 5.32007 -2.83008 3.989
v 5.32007 -2.83008 3.689
v 5.32007 -2.83008 3.689
v 5.37 -3.87012 3.689
v 5.37 -3.87012 3.989
v 10.23 -3.66992 3.989
v 5.37 -3.87012 3.989
v 5.37 -3.87012 3.689
v 5.37 -3.87012 3.689
v 10.23 -3.66992 3.689
v 10.23 -3.66992 3.989
v 10.1801 -2.62012 3.989
v 10.23 -3.66992 3.989
v 10.23 -3.66992 3.689
v 10.23 -3.66992 3.689
v 10.1801 -2.62012 3.689
v 10.1801 -2.62012 3.989
v 0.109985 -2.76025 3.989
v 4.96008 -2.56006 3.989
v 4.96008 -2.56006 3.689
v 4.96008 -2.56006 3.689
v 0.109985 -2.76025 3.689
v 0.109985 -2.76025 3.989
v 0.160034 -4.12988 3.989
v 0.109985 -2.76025 3.989
v 0.109985 -2.76025 3.689
v 0.109985 -2.76025 3.689
v 0.160034 -4.12988 3.689
v 0.160034 -4.12988 3.989
v 5.02002 -3.91992 3.989
v 0.160034 -4.12988 3.989
v 0.160034 -4.12988 3.689
v 0.160034 -4.12988 3.689
v 5.02002 -3.91992 3.689
v 5.02002 -3.91992 3.989
v 4.96008 -2.56006 3.989
v 5.02002 -3.91992 3.989
v 5.02002 -3.91992 3.689
v 5.02002 -3.91992 3.689
v 4.96008 -2.56006 3.689
v 4.96008 -2.56006 3.989
v -9.63 -3.70996 3.5965
v -4.69995 -3.43994 3.5965
v -4.6499 -4.31006 3.5385
v -4.6499 -4.31006 3.5385
v -9.58997 -4.58008 3.5385
v -9.63 -3.70996 3.5965
v 5.32007 -2.83008 3.689
v 10.1801 -2.62012 3.689
v 10.23 -3.66992 3.689
v 10.23 -3.66992 3.689
v 5.37 -3.87012 3.689
v 5.32007 -2.83008 3.689
v 0.109985 -2.76025 3.689
v 4.96008 -2.56006 3.689
v 5.02002 -3.91992 3.689
v 5.02002 -3.91992 3.689
v 0.160034 -4.12988 3.689
v 0.109985 -2.76025 3.689
# 90 elements written

vn -0.0548637 0.998494 0
vn -0.0548637 0.998494 0
vn -0.0548637 0.998494 0
vn -0.0548637 0.998494 0
vn -0.0548637 0.998494 0
vn -0.0548637 0.998494 0
vn -0.998506 -0.0546405 -0
vn -0.998506 -0.0546405 -0
vn -0.998506 -0.0546405 -0
vn -0.998506 -0.0546405 0
vn -0.998506 -0.0546405 0
vn -0.998506 -0.0546405 0
vn 0.0546679 -0.998505 0
vn 0.0546679 -0.998505 0
vn 0.0546679 -0.998505 0
vn 0.0546679 -0.998505 0
vn 0.0546679 -0.998505 0
vn 0.0546679 -0.998505 0
vn 0.998517 0.0544419 0
vn 0.998517 0.0544419 0
vn 0.998517 0.0544419 0
vn 0.998517 0.0544419 0
vn 0.998517 0.0544419 0
vn 0.998517 0.0544419 0
vn -0.0424699 0.999098 0
vn -0.0424699 0.999098 0
vn -0.0424699 0.999098 0
vn -0.0423697 0.999101 0.00162614
vn -0.0423697 0.999101 0.00162614
vn -0.0423697 0.999101 0.00162614
vn -0.999119 -0.0419602 -6.82948e-005
vn -0.999119 -0.0419602 -6.82948e-005
vn -0.999119 -0.0419602 -6.82948e-005
vn -0.99912 -0.0419407 0
vn -0.99912 -0.0419407 0
vn -0.99912 -0.0419407 0
vn 0.0423591 -0.999102 0
vn 0.0423591 -0.999102 0
vn 0.0423591 -0.999102 0
vn 0.0423602 -0.999102 -1.72364e-005
vn 0.0423602 -0.999102 -1.72364e-005
vn 0.0423602 -0.999102 -1.72364e-005
vn 0.999071 0.0431036 -0.000406524
vn 0.999071 0.0431036 -0.000406524
vn 0.999071 0.0431036 -0.000406524
vn 0.999076 0.0429873 0
vn 0.999076 0.0429873 0
vn 0.999076 0.0429873 0
vn -0.0418103 0.999126 0
vn -0.0418103 0.999126 0
vn -0.0418103 0.999126 0
vn -0.0418103 0.999126 0
vn -0.0418103 0.999126 0
vn -0.0418103 0.999126 0
vn -0.999128 -0.0417645 -0
vn -0.999128 -0.0417645 -0
vn -0.999128 -0.0417645 -0
vn -0.999128 -0.0417645 0
vn -0.999128 -0.0417645 0
vn -0.999128 -0.0417645 0
vn 0.0418103 -0.999126 0
vn 0.0418103 -0.999126 0
vn 0.0418103 -0.999126 0
vn 0.0418103 -0.999126 0
vn 0.0418103 -0.999126 0
vn 0.0418103 -0.999126 0
vn 0.999128 0.0417645 0
vn 0.999128 0.0417645 0
vn 0.999128 0.0417645 0
vn 0.999128 0.0417645 0
vn 0.999128 0.0417645 0
vn 0.999128 0.0417645 0
vn -0.00360349 0.0655819 -0.997841
vn -0.00360349 0.0655819 -0.997841
vn -0.00360349 0.0655819 -0.997841
vn -0.00359456 0.0656544 -0.997836
vn -0.00359456 0.0656544 -0.997836
vn -0.00359456 0.0656544 -0.997836
vn 0 0 -1
vn 0 0 -1
vn 0 0 -1
vn 0 0 -1
vn 0 0 -1
vn 0 0 -1
vn 0 0 -1
vn 0 0 -1
vn 0 0 -1
vn 0 0 -1
vn 0 0 -1
vn 0 0 -1
# 90 elements written

vt 5.46552 0.566372
vt 2.99951 0.56637
vt 2.99951 0.41637
vt 2.99951 0.41637
vt 5.46552 0.41637
vt 5.46552 0.566372
vt 1.00659 0.537369
vt 0.567139 0.566372
vt 0.567139 0.41637
vt 0.567139 0.41637
vt 1.00659 0.387369
vt 1.00659 0.537369
vt -1.97552 0.537369
vt -4.44147 0.537369
vt -4.44147 0.387369
vt -4.44147 0.387369
vt -1.97552 0.387369
vt -1.97552 0.537369
vt 0.568359 0.56637
vt 0.128418 0.537369
vt 0.128418 0.387369
vt 0.128418 0.387369
vt 0.568359 0.41637
vt 0.568359 0.56637
vt -2.01349 0.612629
vt -4.44293 0.612629
vt -4.44293 0.462629
vt -4.44293 0.462629
vt -2.01349 0.462629
vt -2.01349 0.612629
vt 0.651611 0.612629
vt 0.128174 0.612629
vt 0.128174 0.462629
vt 0.128174 0.462629
vt 0.651611 0.462629
vt 0.651611 0.612629
vt 5.46552 0.612629
vt 3.03546 0.612629
vt 3.03546 0.462629
vt 3.03546 0.462629
vt 5.46545 0.462629
vt 5.46552 0.612629
vt 0.974854 0.612629
vt 0.451416 0.612629
vt 0.451416 0.462629
vt 0.451416 0.462629
vt 0.974854 0.462629
vt 0.974854 0.612629
vt 0.595825 0.612629
vt -1.83118 0.612629
vt -1.83118 0.462629
vt -1.83118 0.462629
vt 0.595825 0.462629
vt 0.595825 0.612629
vt 0.7771 0.612629
vt 0.0952148 0.612629
vt 0.0952148 0.462629
vt 0.0952148 0.462629
vt 0.7771 0.462629
vt 0.7771 0.612629
vt 2.85968 0.612629
vt 0.432678 0.612629
vt 0.432678 0.462629
vt 0.432678 0.462629
vt 2.85968 0.462629
vt 2.85968 0.612629
vt 1.00635 0.612629
vt 0.324463 0.612629
vt 0.324463 0.462629
vt 0.324463 0.462629
vt 1.00635 0.462629
vt 1.00635 0.612629
vt 5.46552 0.432861
vt 2.99951 0.568359
vt 2.97552 0.128418
vt 2.97552 0.128418
vt 5.44147 -0.0065918
vt 5.46552 0.432861
vt -2.01349 0.871826
vt -4.44293 0.974854
vt -4.46545 0.451416
vt -4.46545 0.451416
vt -2.03546 0.348389
vt -2.01349 0.871826
vt 0.595825 0.904785
vt -1.83118 1.00635
vt -1.85968 0.324463
vt -1.85968 0.324463
vt 0.567322 0.2229
vt 0.595825 0.904785
# 90 elements written
f 55/55/55 56/56/56 57/57/57 
f 58/58/58 59/59/59 60/60/60 
f 61/61/61 62/62/62 63/63/63 
f 64/64/64 65/65/65 66/66/66 
f 67/67/67 68/68/68 69/69/69 
f 70/70/70 71/71/71 72/72/72 
f 73/73/73 74/74/74 75/75/75 
f 76/76/76 77/77/77 78/78/78 
f 79/79/79 80/80/80 81/81/81 
f 82/82/82 83/83/83 84/84/84 
f 85/85/85 86/86/86 87/87/87 
f 88/88/88 89/89/89 90/90/90 
f 91/91/91 92/92/92 93/93/93 
f 94/94/94 95/95/95 96/96/96 
f 97/97/97 98/98/98 99/99/99 
f 100/100/100 101/101/101 102/102/102 
f 103/103/103 104/104/104 105/105/105 
f 106/106/106 107/107/107 108/108/108 
f 109/109/109 110/110/110 111/111/111 
f 112/112/112 113/113/113 114/114/114 
f 115/115/115 116/116/116 117/117/117 
f 118/118/118 119/119/119 120/120/120 
f 121/121/121 122/122/122 123/123/123 
f 124/124/124 125/125/125 126/126/126 
f 127/127/127 128/128/128 129/129/129 
f 130/130/130 131/131/131 132/132/132 
f 133/133/133 134/134/134 135/135/135 
f 136/136/136 137/137/137 138/138/138 
f 139/139/139 140/140/140 141/141/141 
f 142/142/142 143/143/143 144/144/144 

o Group_MatrixTransform_i96175_Geometry_4
usemtl material_299

v 5.02002 -3.91992 3.989
v 4.96008 -2.56006 3.989
v 0.109985 -2.76025 3.989
v 0.109985 -2.76025 3.989
v 0.160034 -4.12988 3.989
v 5.02002 -3.91992 3.989
# 6 elements written

vn 0 0 1
vn 0 0 1
vn 0 0 1
vn 0 0 1
vn 0 0 1
vn 0 0 1
# 6 elements written

vt 0.996029 0.463986
vt 0.930279 0.992685
vt 0 0.52872
vt 0 0.52872
vt 0.065789 0
vt 0.996029 0.463986
# 6 elements written
f 145/145/145 146/146/146 147/147/147 
f 148/148/148 149/149/149 150/150/150 

o Group_MatrixTransform_i96175_Geometry_5
usemtl material_300

v 10.23 -3.66992 3.989
v 10.1801 -2.62012 3.989
v 5.32007 -2.83008 3.989
v 5.32007 -2.83008 3.989
v 5.37 -3.87012 3.989
v 10.23 -3.66992 3.989
# 6 elements written

vn 0 0 1
vn 0 0 1
vn 0 0 1
vn 0 0 1
vn 0 0 1
vn 0 0 1
# 6 elements written

vt 0.993089 0.526952
vt 0.941832 0.986034
vt 0 0.459189
vt 0 0.459189
vt 0.051091 0
vt 0.993089 0.526952
# 6 elements written
f 151/151/151 152/152/152 153/153/153 
f 154/154/154 155/155/155 156/156/156 

o Group_MatrixTransform_i96175_Geometry_6
usemtl material_301

v -9.63 -3.70996 3.8965
v -9.58997 -4.58008 3.8385
v -4.6499 -4.31006 3.8385
v -4.69995 -3.43994 3.8965
v -9.63 -3.70996 3.8965
v -4.6499 -4.31006 3.8385
# 6 elements written

vn 0.0035948 -0.0656587 0.997836
vn 0.0035948 -0.0656587 0.997836
vn 0.0035948 -0.0656587 0.997836
vn 0.00360426 -0.0655818 0.997841
vn 0.00360426 -0.0655818 0.997841
vn 0.00360426 -0.0655818 0.997841
# 6 elements written

vt 0 0.406417
vt 0.048497 0
vt 0.991396 0.592873
vt 0.942993 0.999808
vt 0 0.406417
vt 0.991396 0.592873
# 6 elements written
f 157/157/157 158/158/158 159/159/159 
f 160/160/160 161/161/161 162/162/162 

o Group_MatrixTransform_i96175_Geometry_7
usemtl material_302

v 14.6001 -3.10986 6.258
v 14.3201 4.58008 6.258
v -14.6 3.5 6.258
v -14.6 3.5 6.258
v -14.3099 -4.18994 6.258
v -9.48999 -4.01025 6.258
v -14.6 3.5 6.258
v -9.48999 -4.01025 6.258
v -4.66992 -3.83008 6.258
v -14.6 3.5 6.258
v -4.66992 -3.83008 6.258
v 0.150024 -3.6499 6.258
v -14.6 3.5 6.258
v 0.150024 -3.6499 6.258
v 4.97009 -3.47021 6.258
v -14.6 3.5 6.258
v 4.97009 -3.47021 6.258
v 9.78003 -3.29004 6.258
v -14.6 3.5 6.258
v 9.78003 -3.29004 6.258
v 14.6001 -3.10986 6.258
# 21 elements written

vn 1.13205e-007 5.00288e-007 1
vn 1.13205e-007 5.00288e-007 1
vn 1.13205e-007 5.00288e-007 1
vn 1.8528e-008 -4.95498e-007 1
vn 1.8528e-008 -4.95498e-007 1
vn 1.8528e-008 -4.95498e-007 1
vn 1.8528e-008 -4.95498e-007 1
vn 1.8528e-008 -4.95498e-007 1
vn 1.8528e-008 -4.95498e-007 1
vn -7.34993e-007 -1.516e-006 1
vn -7.34993e-007 -1.516e-006 1
vn -7.34993e-007 -1.516e-006 1
vn 0 0 1
vn 0 0 1
vn 0 0 1
vn 0 0 1
vn 0 0 1
vn 0 0 1
vn 0 0 1
vn 0 0 1
vn 0 0 1
# 21 elements written

vt 0.999158 0.474483
vt 0.937682 0.996281
vt 0 0.521793
vt 0 0.521793
vt 0.061683 0
vt 0.217929 0.0790805
vt 0 0.521793
vt 0.217929 0.0790805
vt 0.374175 0.158161
vt 0 0.521793
vt 0.374175 0.158161
vt 0.530421 0.237242
vt 0 0.521793
vt 0.530421 0.237242
vt 0.686666 0.316322
vt 0 0.521793
vt 0.686666 0.316322
vt 0.842912 0.395402
vt 0 0.521793
vt 0.842912 0.395402
vt 0.999158 0.474483
# 21 elements written
f 163/163/163 164/164/164 165/165/165 
f 166/166/166 167/167/167 168/168/168 
f 169/169/169 170/170/170 171/171/171 
f 172/172/172 173/173/173 174/174/174 
f 175/175/175 176/176/176 177/177/177 
f 178/178/178 179/179/179 180/180/180 
f 181/181/181 182/182/182 183/183/183 
