# file written by OpenSceneGraph

mtllib i96143.mtl


g Group_0

g Group_MatrixTransform_0

o Group_MatrixTransform_i96143_Geometry_0
usemtl material_233

v 37.715 -5.40527 0.599998
v 37.475 1.32471 0.5
v 37.475 1.32471 6.379
v 37.475 1.32471 6.379
v 37.715 -5.40527 5.564
v 37.715 -5.40527 0.599998
v 37.475 1.32471 6.379
v 37.475 1.32471 0.5
v 37.225 8.08496 0.399998
v 37.225 8.08496 0.399998
v 37.225 8.08496 5.564
v 37.475 1.32471 6.379
v -37.715 5.40479 5.564
v -37.715 5.40479 0
v -37.465 -1.35547 0.0779991
v -37.465 -1.35547 0.0779991
v -37.465 -1.35547 6.379
v -37.715 5.40479 5.564
v -37.225 -8.08545 5.564
v -37.465 -1.35547 6.379
v -37.465 -1.35547 0.0779991
v -37.465 -1.35547 0.0779991
v -37.225 -8.08545 0.0999985
v -37.225 -8.08545 5.564
# 24 elements written

vn 0.99936 0.0357743 2.97124e-006
vn 0.99936 0.0357743 2.97124e-006
vn 0.99936 0.0357743 2.97124e-006
vn 0.99936 0.0357769 0
vn 0.99936 0.0357769 0
vn 0.99936 0.0357769 0
vn 0.99936 0.0357637 2.97036e-006
vn 0.99936 0.0357637 2.97036e-006
vn 0.99936 0.0357637 2.97036e-006
vn 0.99936 0.0357611 0
vn 0.99936 0.0357611 0
vn 0.99936 0.0357611 0
vn -0.99936 -0.0357817 0
vn -0.99936 -0.0357817 0
vn -0.99936 -0.0357817 0
vn -0.999359 -0.0357974 1.93608e-005
vn -0.999359 -0.0357974 1.93608e-005
vn -0.999359 -0.0357974 1.93608e-005
vn -0.999361 -0.0357559 1.93608e-005
vn -0.999361 -0.0357559 1.93608e-005
vn -0.999361 -0.0357559 1.93608e-005
vn -0.999361 -0.0357561 1.91313e-005
vn -0.999361 -0.0357561 1.91313e-005
vn -0.999361 -0.0357561 1.91313e-005
# 24 elements written

vt 0.0010376 0.0561113
vt 0.998108 0.0401988
vt 0.998108 0.975715
vt 0.998108 0.975715
vt 0.0010376 0.846025
vt 0.0010376 0.0561113
vt 0.998108 0.975715
vt 0.998108 0.0401988
vt 1.99902 0.0242853
vt 1.99902 0.0242853
vt 1.99902 0.846025
vt 0.998108 0.975715
vt 0.0010376 0.853817
vt 0.0010376 0.0247421
vt 1.00195 0.0363646
vt 1.00195 0.0363646
vt 1.00195 0.975257
vt 0.0010376 0.853817
vt 1.99902 0.853817
vt 1.00195 0.975257
vt 1.00195 0.0363646
vt 1.00195 0.0363646
vt 1.99902 0.0396428
vt 1.99902 0.853817
# 24 elements written
f 1/1/1 2/2/2 3/3/3 
f 4/4/4 5/5/5 6/6/6 
f 7/7/7 8/8/8 9/9/9 
f 10/10/10 11/11/11 12/12/12 
f 13/13/13 14/14/14 15/15/15 
f 16/16/16 17/17/17 18/18/18 
f 19/19/19 20/20/20 21/21/21 
f 22/22/22 23/23/23 24/24/24 

o Group_MatrixTransform_i96143_Geometry_1
usemtl material_234

v -10.735 6.36475 5.564
v -10.735 6.36475 0.143997
v -37.715 5.40479 0
v -37.715 5.40479 0
v -37.715 5.40479 5.564
v -10.735 6.36475 5.564
v 37.225 8.08496 5.564
v 37.225 8.08496 0.399998
v -7.01501 6.50488 0.163799
v -7.01501 6.50488 0.163799
v -7.01501 6.50488 5.564
v 37.225 8.08496 5.564
# 12 elements written

vn -0.0357577 0.999361 0
vn -0.0357577 0.999361 0
vn -0.0357577 0.999361 0
vn -0.0357577 0.999361 0
vn -0.0357577 0.999361 0
vn -0.0357577 0.999361 0
vn -0.0357632 0.99936 0
vn -0.0357632 0.99936 0
vn -0.0357632 0.99936 0
vn -0.0357632 0.99936 0
vn -0.0357632 0.99936 0
vn -0.0357632 0.99936 0
# 12 elements written

vt 6.39853 0.999501
vt 6.39853 0.0263548
vt 9.995 0.000500202
vt 9.995 0.000500202
vt 9.995 0.999501
vt 6.39853 0.999501
vt 0.00499725 0.999501
vt 0.00499725 0.0723186
vt 5.90359 0.0299129
vt 5.90359 0.0299129
vt 5.90359 0.999501
vt 0.00499725 0.999501
# 12 elements written
f 25/25/25 26/26/26 27/27/27 
f 28/28/28 29/29/29 30/30/30 
f 31/31/31 32/32/32 33/33/33 
f 34/34/34 35/35/35 36/36/36 

o Group_MatrixTransform_i96143_Geometry_2
usemtl material_235

v 4.86499 -6.23535 4.4353
v 1.43506 -6.25537 4.4353
v 1.43506 -6.25537 4.7353
v 1.43506 -6.25537 4.7353
v 4.86499 -6.23535 4.7353
v 4.86499 -6.23535 4.4353
v 1.43506 -6.25537 4.4353
v 1.44495 -7.42529 4.4353
v 1.44495 -7.42529 4.7353
v 1.44495 -7.42529 4.7353
v 1.43506 -6.25537 4.7353
v 1.43506 -6.25537 4.4353
v 1.44495 -7.42529 4.4353
v 4.875 -7.39502 4.4353
v 4.875 -7.39502 4.7353
v 4.875 -7.39502 4.7353
v 1.44495 -7.42529 4.7353
v 1.44495 -7.42529 4.4353
v 4.875 -7.39502 4.4353
v 4.86499 -6.23535 4.4353
v 4.86499 -6.23535 4.7353
v 4.86499 -6.23535 4.7353
v 4.875 -7.39502 4.7353
v 4.875 -7.39502 4.4353
v 25.715 -5.29541 4.4802
v 25.715 -6.51514 4.4802
v 25.715 -6.51514 4.7802
v 25.715 -6.51514 4.7802
v 25.715 -5.29541 4.7802
v 25.715 -5.29541 4.4802
v 25.715 -6.51514 4.4802
v 29.105 -6.52539 4.4802
v 29.105 -6.52539 4.7802
v 29.105 -6.52539 4.7802
v 25.715 -6.51514 4.7802
v 25.715 -6.51514 4.4802
v 29.105 -6.52539 4.4802
v 29.115 -5.30518 4.4802
v 29.115 -5.30518 4.7802
v 29.115 -5.30518 4.7802
v 29.105 -6.52539 4.7802
v 29.105 -6.52539 4.4802
v 29.115 -5.30518 4.4802
v 25.715 -5.29541 4.4802
v 25.715 -5.29541 4.7802
v 25.715 -5.29541 4.7802
v 29.115 -5.30518 4.7802
v 29.115 -5.30518 4.4802
v 29.115 -5.30518 4.4802
v 29.105 -6.52539 4.4802
v 25.715 -6.51514 4.4802
v 25.715 -6.51514 4.4802
v 25.715 -5.29541 4.4802
v 29.115 -5.30518 4.4802
v 4.875 -7.39502 4.4353
v 1.44495 -7.42529 4.4353
v 1.43506 -6.25537 4.4353
v 1.43506 -6.25537 4.4353
v 4.86499 -6.23535 4.4353
v 4.875 -7.39502 4.4353
# 60 elements written

vn -0.0066869 0.999976 0.00163029
vn -0.0066869 0.999976 0.00163029
vn -0.0066869 0.999976 0.00163029
vn -0.00682942 0.999977 0
vn -0.00682942 0.999977 0
vn -0.00682942 0.999977 0
vn -0.999964 -0.0085081 0
vn -0.999964 -0.0085081 0
vn -0.999964 -0.0085081 0
vn -0.999965 -0.0084066 0.000393205
vn -0.999965 -0.0084066 0.000393205
vn -0.999965 -0.0084066 0.000393205
vn 0.00668667 -0.999978 0
vn 0.00668667 -0.999978 0
vn 0.00668667 -0.999978 0
vn 0.00668667 -0.999978 0
vn 0.00668667 -0.999978 0
vn 0.00668667 -0.999978 0
vn 0.999963 0.00861313 0
vn 0.999963 0.00861313 0
vn 0.999963 0.00861313 0
vn 0.999963 0.00861313 0
vn 0.999963 0.00861313 0
vn 0.999963 0.00861313 0
vn -0.999995 0.00330262 0
vn -0.999995 0.00330262 0
vn -0.999995 0.00330262 0
vn -0.999995 0.00330262 0
vn -0.999995 0.00330262 0
vn -0.999995 0.00330262 0
vn -0.00244472 -0.999997 0
vn -0.00244472 -0.999997 0
vn -0.00244472 -0.999997 0
vn -0.00244472 -0.999997 -0
vn -0.00244472 -0.999997 -0
vn -0.00244472 -0.999997 -0
vn 0.999994 -0.00329866 -0.0004069
vn 0.999994 -0.00329866 -0.0004069
vn 0.999994 -0.00329866 -0.0004069
vn 0.999994 -0.00339862 0
vn 0.999994 -0.00339862 0
vn 0.999994 -0.00339862 0
vn 0.0020133 0.999998 0
vn 0.0020133 0.999998 0
vn 0.0020133 0.999998 0
vn 0.00201323 0.999998 -8.19186e-007
vn 0.00201323 0.999998 -8.19186e-007
vn 0.00201323 0.999998 -8.19186e-007
vn 0 0 -1
vn 0 0 -1
vn 0 0 -1
vn 0 0 -1
vn 0 0 -1
vn 0 0 -1
vn 0 0 -1
vn 0 0 -1
vn 0 0 -1
vn 0 0 -1
vn 0 0 -1
vn 0 0 -1
# 60 elements written

vt -0.355469 0.424999
vt 1.36047 0.424999
vt 1.36041 0.574999
vt 1.36041 0.574999
vt -0.355469 0.574999
vt -0.355469 0.424999
vt 0.215088 0.424999
vt 0.796143 0.424999
vt 0.796143 0.574999
vt 0.796143 0.574999
vt 0.215332 0.574999
vt 0.215088 0.424999
vt -0.35553 0.424999
vt 1.36047 0.424999
vt 1.36047 0.574999
vt 1.36047 0.574999
vt -0.35553 0.574999
vt -0.35553 0.424999
vt 0.215332 0.424999
vt 0.796387 0.424999
vt 0.796387 0.574999
vt 0.796387 0.574999
vt 0.215332 0.574999
vt 0.215332 0.424999
vt 0.193115 0.425001
vt 0.802979 0.425001
vt 0.802979 0.575001
vt 0.802979 0.575001
vt 0.193115 0.575001
vt 0.193115 0.425001
vt -0.349915 0.425001
vt 1.34778 0.425001
vt 1.34778 0.575001
vt 1.34778 0.575001
vt -0.349915 0.575001
vt -0.349915 0.425001
vt 0.192871 0.425001
vt 0.803467 0.425001
vt 0.803467 0.575001
vt 0.803467 0.575001
vt 0.192871 0.575001
vt 0.192871 0.425001
vt -0.349792 0.425001
vt 1.3479 0.425001
vt 1.3479 0.575001
vt 1.3479 0.575001
vt -0.349854 0.575001
vt -0.349792 0.425001
vt -0.349792 0.803467
vt -0.347778 0.192871
vt 1.34991 0.197021
vt 1.34991 0.197021
vt 1.3479 0.806885
vt -0.349792 0.803467
vt -0.360474 0.215332
vt 1.35553 0.203857
vt 1.36047 0.784912
vt 1.36047 0.784912
vt -0.355469 0.796387
vt -0.360474 0.215332
# 60 elements written
f 37/37/37 38/38/38 39/39/39 
f 40/40/40 41/41/41 42/42/42 
f 43/43/43 44/44/44 45/45/45 
f 46/46/46 47/47/47 48/48/48 
f 49/49/49 50/50/50 51/51/51 
f 52/52/52 53/53/53 54/54/54 
f 55/55/55 56/56/56 57/57/57 
f 58/58/58 59/59/59 60/60/60 
f 61/61/61 62/62/62 63/63/63 
f 64/64/64 65/65/65 66/66/66 
f 67/67/67 68/68/68 69/69/69 
f 70/70/70 71/71/71 72/72/72 
f 73/73/73 74/74/74 75/75/75 
f 76/76/76 77/77/77 78/78/78 
f 79/79/79 80/80/80 81/81/81 
f 82/82/82 83/83/83 84/84/84 
f 85/85/85 86/86/86 87/87/87 
f 88/88/88 89/89/89 90/90/90 
f 91/91/91 92/92/92 93/93/93 
f 94/94/94 95/95/95 96/96/96 

o Group_MatrixTransform_i96143_Geometry_3
usemtl material_236

v 25.015 -5.85547 5.564
v 25.015 -5.85547 0.515297
v 29.8151 -5.68506 0.547298
v 29.8151 -5.68506 0.547298
v 29.8151 -5.68506 5.564
v 25.015 -5.85547 5.564
v 0.704956 -6.7251 5.564
v 0.704956 -6.7251 0.3531
v 5.76501 -6.54541 0.386898
v 5.76501 -6.54541 0.386898
v 5.76501 -6.54541 5.564
v 0.704956 -6.7251 5.564
# 12 elements written

vn 0.0357422 -0.999361 0
vn 0.0357422 -0.999361 0
vn 0.0357422 -0.999361 0
vn 0.0357422 -0.999361 0
vn 0.0357422 -0.999361 0
vn 0.0357422 -0.999361 0
vn 0.0357724 -0.99936 0
vn 0.0357724 -0.99936 0
vn 0.0357724 -0.99936 0
vn 0.0357724 -0.99936 0
vn 0.0357724 -0.99936 0
vn 0.0357724 -0.99936 0
# 12 elements written

vt 0.000488281 1
vt 0.000488281 0
vt 0.999481 0
vt 0.999481 0
vt 0.999481 1
vt 0.000488281 1
vt 0.000488281 1
vt 0.000488281 0
vt 0.999481 0
vt 0.999481 0
vt 0.999481 1
vt 0.000488281 1
# 12 elements written
f 97/97/97 98/98/98 99/99/99 
f 100/100/100 101/101/101 102/102/102 
f 103/103/103 104/104/104 105/105/105 
f 106/106/106 107/107/107 108/108/108 

o Group_MatrixTransform_i96143_Geometry_4
usemtl material_237

v 29.8151 -5.68506 5.564
v 29.8151 -5.68506 0.547298
v 37.715 -5.40527 0.599998
v 37.715 -5.40527 0.599998
v 37.715 -5.40527 5.564
v 29.8151 -5.68506 5.564
v 25.015 -5.85547 0.515297
v 25.015 -5.85547 5.564
v 5.76501 -6.54541 5.564
v 5.76501 -6.54541 5.564
v 5.76501 -6.54541 0.386898
v 25.015 -5.85547 0.515297
v -37.225 -8.08545 5.564
v -37.225 -8.08545 0.0999985
v 0.704956 -6.7251 0.3531
v 0.704956 -6.7251 0.3531
v 0.704956 -6.7251 5.564
v -37.225 -8.08545 5.564
v -7.01501 6.50488 5.564
v -7.01501 6.50488 0.163799
v -10.735 6.36475 0.143997
v -10.735 6.36475 0.143997
v -10.735 6.36475 5.564
v -7.01501 6.50488 5.564
# 24 elements written

vn 0.0357268 -0.999362 0
vn 0.0357268 -0.999362 0
vn 0.0357268 -0.999362 0
vn 0.0357268 -0.999362 0
vn 0.0357268 -0.999362 0
vn 0.0357268 -0.999362 0
vn 0.0357827 -0.99936 0
vn 0.0357827 -0.99936 0
vn 0.0357827 -0.99936 0
vn 0.0357827 -0.99936 0
vn 0.0357827 -0.99936 0
vn 0.0357827 -0.99936 0
vn 0.0357704 -0.99936 -9.01053e-005
vn 0.0357704 -0.99936 -9.01053e-005
vn 0.0357704 -0.99936 -9.01053e-005
vn 0.0357827 -0.99936 0
vn 0.0357827 -0.99936 0
vn 0.0357827 -0.99936 0
vn -0.035879 0.999356 0
vn -0.035879 0.999356 0
vn -0.035879 0.999356 0
vn -0.035879 0.999356 0
vn -0.035879 0.999356 0
vn -0.035879 0.999356 0
# 24 elements written

vt -0.140381 0.999501
vt -0.140381 0.000499249
vt 1.14038 0.0109878
vt 1.14038 0.0109878
vt 1.14038 0.999501
vt -0.140381 0.999501
vt 2.92715 0
vt 2.92715 0.9995
vt 0.0728531 0.9995
vt 0.0728531 0.9995
vt 0.0728531 0
vt 2.92715 0
vt 0.00249863 1
vt 0.00249863 0
vt 4.9975 0
vt 4.9975 0
vt 4.9975 1
vt 0.00249863 1
vt 0.139404 0.999501
vt 0.139404 0.0041523
vt 0.775726 0.000499725
vt 0.775726 0.000499725
vt 0.775726 0.999501
vt 0.139404 0.999501
# 24 elements written
f 109/109/109 110/110/110 111/111/111 
f 112/112/112 113/113/113 114/114/114 
f 115/115/115 116/116/116 117/117/117 
f 118/118/118 119/119/119 120/120/120 
f 121/121/121 122/122/122 123/123/123 
f 124/124/124 125/125/125 126/126/126 
f 127/127/127 128/128/128 129/129/129 
f 130/130/130 131/131/131 132/132/132 

o Group_MatrixTransform_i96143_Geometry_5
usemtl material_238

v -37.225 -8.08545 5.564
v 37.715 -5.40527 5.564
v 37.475 1.32471 6.379
v 37.475 1.32471 6.379
v 37.225 8.08496 5.564
v -37.715 5.40479 5.564
v 37.475 1.32471 6.379
v -37.715 5.40479 5.564
v -37.465 -1.35547 6.379
v 37.475 1.32471 6.379
v -37.465 -1.35547 6.379
v -37.225 -8.08545 5.564
# 12 elements written

vn 0.00429741 -0.120051 0.992758
vn 0.00429741 -0.120051 0.992758
vn 0.00429741 -0.120051 0.992758
vn -0.0042798 0.119581 0.992815
vn -0.0042798 0.119581 0.992815
vn -0.0042798 0.119581 0.992815
vn -0.00427933 0.11959 0.992814
vn -0.00427933 0.11959 0.992814
vn -0.00427933 0.11959 0.992814
vn 0.00429525 -0.120034 0.99276
vn 0.00429525 -0.120034 0.99276
vn 0.00429525 -0.120034 0.99276
# 12 elements written

vt 0.042094 0
vt 0.999418 0.573937
vt 0.977638 0.77923
vt 0.977638 0.77923
vt 0.96503 0.957028
vt 0.00729517 0.383142
vt 0.977638 0.77923
vt 0.00729517 0.383142
vt 0.018568 0.204389
vt 0.977638 0.77923
vt 0.018568 0.204389
vt 0.042094 0
# 12 elements written
f 133/133/133 134/134/134 135/135/135 
f 136/136/136 137/137/137 138/138/138 
f 139/139/139 140/140/140 141/141/141 
f 142/142/142 143/143/143 144/144/144 

o Group_MatrixTransform_i96143_Geometry_6
usemtl material_239

v 4.875 -7.39502 4.7353
v 4.86499 -6.23535 4.7353
v 1.43506 -6.25537 4.7353
v 1.43506 -6.25537 4.7353
v 1.44495 -7.42529 4.7353
v 4.875 -7.39502 4.7353
v 29.115 -5.30518 4.7802
v 25.715 -5.29541 4.7802
v 25.715 -6.51514 4.7802
v 25.715 -6.51514 4.7802
v 29.105 -6.52539 4.7802
v 29.115 -5.30518 4.7802
# 12 elements written

vn 0 0 1
vn 0 0 1
vn 0 0 1
vn 0 0 1
vn 0 0 1
vn 0 0 1
vn 0 0 1
vn 0 0 1
vn 0 0 1
vn 0 0 1
vn 0 0 1
vn 0 0 1
# 12 elements written

vt 0.989997 0.313106
vt 0.901538 0.978865
vt 0 0.665764
vt 0 0.665764
vt 0.088491 0
vt 0.989997 0.313106
vt 0.901226 0.995705
vt 0 0.700695
vt 0.087399 0
vt 0.087399 0
vt 0.988663 0.294439
vt 0.901226 0.995705
# 12 elements written
f 145/145/145 146/146/146 147/147/147 
f 148/148/148 149/149/149 150/150/150 
f 151/151/151 152/152/152 153/153/153 
f 154/154/154 155/155/155 156/156/156 
