# file written by OpenSceneGraph

mtllib i96173.mtl


g Group_0

g Group_MatrixTransform_0

o Group_MatrixTransform_i96173_Geometry_0
usemtl material_291

v 14.9399 5.84033 0.0999985
v -15.3201 4.76025 0
v -15.3201 4.76025 3.604
v -15.3201 4.76025 3.604
v 14.9399 5.84033 3.604
v 14.9399 5.84033 0.0999985
# 6 elements written

vn -0.0356084 0.999366 0
vn -0.0356084 0.999366 0
vn -0.0356084 0.999366 0
vn -0.0356084 0.999366 0
vn -0.0356084 0.999366 0
vn -0.0356084 0.999366 0
# 6 elements written

vt 0.00299835 0.0282183
vt 5.99702 0.000499725
vt 5.99702 0.999501
vt 5.99702 0.999501
vt 0.00299835 0.999501
vt 0.00299835 0.0282183
# 6 elements written
f 1/1/1 2/2/2 3/3/3 
f 4/4/4 5/5/5 6/6/6 

o Group_MatrixTransform_i96173_Geometry_1
usemtl material_292

v 15.3199 -4.75977 0.0999985
v 15.1299 0.450195 0.0999985
v 15.1299 0.450195 5
v 15.1299 0.450195 5
v 15.3199 -4.75977 3.604
v 15.3199 -4.75977 0.0999985
v 15.1299 0.450195 0.0999985
v 14.9399 5.84033 0.0999985
v 14.9399 5.84033 3.604
v 14.9399 5.84033 3.604
v 15.1299 0.450195 5
v 15.1299 0.450195 0.0999985
v -15.3201 4.76025 0
v -15.13 -0.619629 0
v -15.13 -0.619629 5
v -15.13 -0.619629 5
v -15.3201 4.76025 3.604
v -15.3201 4.76025 0
v -15.13 -0.619629 0
v -14.9401 -5.83984 0
v -14.9401 -5.83984 3.604
v -14.9401 -5.83984 3.604
v -15.13 -0.619629 5
v -15.13 -0.619629 0
# 24 elements written

vn 0.999366 0.0356047 -2.48965e-005
vn 0.999366 0.0356047 -2.48965e-005
vn 0.999366 0.0356047 -2.48965e-005
vn 0.999367 0.0355813 0
vn 0.999367 0.0355813 0
vn 0.999367 0.0355813 0
vn 0.999366 0.035601 0
vn 0.999366 0.035601 0
vn 0.999366 0.035601 0
vn 0.999366 0.0356172 -2.48965e-005
vn 0.999366 0.0356172 -2.48965e-005
vn 0.999366 0.0356172 -2.48965e-005
vn -0.999365 -0.0356269 0
vn -0.999365 -0.0356269 0
vn -0.999365 -0.0356269 0
vn -0.999365 -0.0356269 -0
vn -0.999365 -0.0356269 -0
vn -0.999365 -0.0356269 -0
vn -0.999366 -0.0356047 3.38493e-005
vn -0.999366 -0.0356047 3.38493e-005
vn -0.999366 -0.0356047 3.38493e-005
vn -0.999365 -0.0356281 -0
vn -0.999365 -0.0356281 -0
vn -0.999365 -0.0356281 -0
# 24 elements written

vt 0.0010376 0.000499725
vt 0.983826 0.000499725
vt 0.983826 1
vt 0.983826 1
vt 0.0010376 1
vt 0.0010376 0.000499725
vt 0.983826 0.000499725
vt 1.99902 0.000499725
vt 1.99902 1
vt 1.99902 1
vt 0.983826 1
vt 0.983826 0.000499725
vt 0 0
vt 1 0
vt 1 1
vt 1 1
vt 0 1
vt 0 0
vt 0 0
vt 1 0
vt 1 1
vt 1 1
vt 0 1
vt 0 0
# 24 elements written
f 7/7/7 8/8/8 9/9/9 
f 10/10/10 11/11/11 12/12/12 
f 13/13/13 14/14/14 15/15/15 
f 16/16/16 17/17/17 18/18/18 
f 19/19/19 20/20/20 21/21/21 
f 22/22/22 23/23/23 24/24/24 
f 25/25/25 26/26/26 27/27/27 
f 28/28/28 29/29/29 30/30/30 

o Group_MatrixTransform_i96173_Geometry_2
usemtl material_293

v -14.9401 -5.83984 0
v 15.3199 -4.75977 0.0999985
v 15.3199 -4.75977 3.604
v 15.3199 -4.75977 3.604
v -14.9401 -5.83984 3.604
v -14.9401 -5.83984 0
# 6 elements written

vn 0.0355924 -0.999366 0
vn 0.0355924 -0.999366 0
vn 0.0355924 -0.999366 0
vn 0.0355926 -0.999366 -1.20555e-006
vn 0.0355926 -0.999366 -1.20555e-006
vn 0.0355926 -0.999366 -1.20555e-006
# 6 elements written

vt -0.0858765 0
vt 2.08587 0
vt 2.08587 0.9995
vt 2.08587 0.9995
vt -0.0858765 0.9995
vt -0.0858765 0
# 6 elements written
f 31/31/31 32/32/32 33/33/33 
f 34/34/34 35/35/35 36/36/36 

o Group_MatrixTransform_i96173_Geometry_3
usemtl material_294

v -14.9401 -5.83984 3.604
v 15.3199 -4.75977 3.604
v 15.1299 0.450195 5
v 15.1299 0.450195 5
v 14.9399 5.84033 3.604
v -15.3201 4.76025 3.604
v 15.1299 0.450195 5
v -15.3201 4.76025 3.604
v -15.13 -0.619629 5
v 15.1299 0.450195 5
v -15.13 -0.619629 5
v -14.9401 -5.83984 3.604
# 12 elements written

vn 0.00920418 -0.258434 0.965985
vn 0.00920418 -0.258434 0.965985
vn 0.00920418 -0.258434 0.965985
vn -0.00893305 0.25071 0.968021
vn -0.00893305 0.25071 0.968021
vn -0.00893305 0.25071 0.968021
vn -0.00892976 0.250731 0.968016
vn -0.00892976 0.250731 0.968016
vn -0.00892976 0.250731 0.968016
vn 0.00920409 -0.258434 0.965985
vn 0.00920409 -0.258434 0.965985
vn 0.00920409 -0.258434 0.965985
# 12 elements written

vt 0.078849 0
vt 0.987239 0.4043
vt 0.939197 0.700276
vt 0.939197 0.700276
vt 0.908679 0.997138
vt 0 0.592952
vt 0.939197 0.700276
vt 0 0.592952
vt 0.028122 0.294917
vt 0.939197 0.700276
vt 0.028122 0.294917
vt 0.078849 0
# 12 elements written
f 37/37/37 38/38/38 39/39/39 
f 40/40/40 41/41/41 42/42/42 
f 43/43/43 44/44/44 45/45/45 
f 46/46/46 47/47/47 48/48/48 
